<mxfile host="65bd71144e">
    <diagram id="tk4KqzBznNfq3hgKPvwF" name="第 1 页">
        <mxGraphModel dx="-214" dy="670" grid="1" gridSize="10" guides="1" tooltips="1" connect="1" arrows="1" fold="1" page="1" pageScale="1" pageWidth="827" pageHeight="1169" math="0" shadow="0">
            <root>
                <mxCell id="0"/>
                <mxCell id="1" parent="0"/>
                <mxCell id="244" value="" style="edgeStyle=none;html=1;entryX=0.094;entryY=0.558;entryDx=0;entryDy=0;entryPerimeter=0;" parent="1" source="237" target="243" edge="1">
                    <mxGeometry relative="1" as="geometry"/>
                </mxCell>
                <mxCell id="237" value="PC" style="rounded=0;whiteSpace=wrap;html=1;" parent="1" vertex="1">
                    <mxGeometry x="1080" y="450" width="70" height="110" as="geometry"/>
                </mxCell>
                <mxCell id="238" value="" style="triangle;whiteSpace=wrap;html=1;rotation=-90;" parent="1" vertex="1">
                    <mxGeometry x="1110" y="550" width="10" height="10" as="geometry"/>
                </mxCell>
                <mxCell id="239" value="din" style="text;html=1;align=center;verticalAlign=middle;resizable=0;points=[];autosize=1;strokeColor=none;fillColor=none;" parent="1" vertex="1">
                    <mxGeometry x="1080" y="517" width="30" height="20" as="geometry"/>
                </mxCell>
                <mxCell id="240" value="adr" style="edgeLabel;html=1;align=center;verticalAlign=middle;resizable=0;points=[];" parent="1" vertex="1" connectable="0">
                    <mxGeometry x="1189.9001143445632" y="499.5985895677518" as="geometry"/>
                </mxCell>
                <mxCell id="246" style="edgeStyle=none;html=1;exitX=1;exitY=0.5;exitDx=0;exitDy=0;entryX=-0.072;entryY=0.625;entryDx=0;entryDy=0;entryPerimeter=0;" parent="1" source="241" target="332" edge="1">
                    <mxGeometry relative="1" as="geometry"/>
                </mxCell>
                <mxCell id="241" value="IROM" style="whiteSpace=wrap;html=1;aspect=fixed;" parent="1" vertex="1">
                    <mxGeometry x="1180" y="450" width="95" height="95" as="geometry"/>
                </mxCell>
                <mxCell id="242" value="inst" style="text;html=1;align=center;verticalAlign=middle;resizable=0;points=[];autosize=1;strokeColor=none;fillColor=none;" parent="1" vertex="1">
                    <mxGeometry x="1245" y="487.5" width="30" height="20" as="geometry"/>
                </mxCell>
                <mxCell id="243" value="adr" style="text;html=1;align=center;verticalAlign=middle;resizable=0;points=[];autosize=1;strokeColor=none;fillColor=none;" parent="1" vertex="1">
                    <mxGeometry x="1180" y="492.5" width="30" height="20" as="geometry"/>
                </mxCell>
                <mxCell id="245" value="IF/ID" style="rounded=0;whiteSpace=wrap;html=1;" parent="1" vertex="1">
                    <mxGeometry x="1320" y="140" width="40" height="820" as="geometry"/>
                </mxCell>
                <mxCell id="269" value="" style="endArrow=none;html=1;startArrow=none;" parent="1" source="307" edge="1">
                    <mxGeometry width="50" height="50" relative="1" as="geometry">
                        <mxPoint x="1439" y="757" as="sourcePoint"/>
                        <mxPoint x="1439" y="257" as="targetPoint"/>
                    </mxGeometry>
                </mxCell>
                <mxCell id="270" value="SEXT" style="rounded=0;whiteSpace=wrap;html=1;" parent="1" vertex="1">
                    <mxGeometry x="1379" y="757" width="101" height="60" as="geometry"/>
                </mxCell>
                <mxCell id="271" value="din" style="text;html=1;align=center;verticalAlign=middle;resizable=0;points=[];autosize=1;strokeColor=none;fillColor=none;" parent="1" vertex="1">
                    <mxGeometry x="1424" y="757" width="30" height="20" as="geometry"/>
                </mxCell>
                <mxCell id="272" value="RF" style="rounded=0;whiteSpace=wrap;html=1;" parent="1" vertex="1">
                    <mxGeometry x="1519" y="527" width="70" height="110" as="geometry"/>
                </mxCell>
                <mxCell id="273" value="ext" style="text;html=1;align=center;verticalAlign=middle;resizable=0;points=[];autosize=1;strokeColor=none;fillColor=none;" parent="1" vertex="1">
                    <mxGeometry x="1454" y="777" width="30" height="20" as="geometry"/>
                </mxCell>
                <mxCell id="274" value="" style="endArrow=classic;html=1;entryX=0;entryY=0.186;entryDx=0;entryDy=0;entryPerimeter=0;" parent="1" target="272" edge="1">
                    <mxGeometry width="50" height="50" relative="1" as="geometry">
                        <mxPoint x="1439" y="547" as="sourcePoint"/>
                        <mxPoint x="1499" y="547" as="targetPoint"/>
                    </mxGeometry>
                </mxCell>
                <mxCell id="275" value="inst[19:15]" style="text;html=1;align=center;verticalAlign=middle;resizable=0;points=[];autosize=1;strokeColor=none;fillColor=none;" parent="1" vertex="1">
                    <mxGeometry x="1404" y="527" width="70" height="20" as="geometry"/>
                </mxCell>
                <mxCell id="276" value="rR1" style="text;html=1;align=center;verticalAlign=middle;resizable=0;points=[];autosize=1;strokeColor=none;fillColor=none;" parent="1" vertex="1">
                    <mxGeometry x="1519" y="537" width="30" height="20" as="geometry"/>
                </mxCell>
                <mxCell id="277" value="" style="endArrow=classic;html=1;entryX=0;entryY=0.186;entryDx=0;entryDy=0;entryPerimeter=0;" parent="1" edge="1">
                    <mxGeometry width="50" height="50" relative="1" as="geometry">
                        <mxPoint x="1439" y="572" as="sourcePoint"/>
                        <mxPoint x="1519" y="572.46" as="targetPoint"/>
                    </mxGeometry>
                </mxCell>
                <mxCell id="278" value="inst[24:20]" style="text;html=1;align=center;verticalAlign=middle;resizable=0;points=[];autosize=1;strokeColor=none;fillColor=none;" parent="1" vertex="1">
                    <mxGeometry x="1404" y="552" width="70" height="20" as="geometry"/>
                </mxCell>
                <mxCell id="279" value="rR2" style="text;html=1;align=center;verticalAlign=middle;resizable=0;points=[];autosize=1;strokeColor=none;fillColor=none;" parent="1" vertex="1">
                    <mxGeometry x="1519" y="564.5" width="30" height="20" as="geometry"/>
                </mxCell>
                <mxCell id="280" value="wR" style="text;html=1;align=center;verticalAlign=middle;resizable=0;points=[];autosize=1;strokeColor=none;fillColor=none;" parent="1" vertex="1">
                    <mxGeometry x="1519" y="592" width="30" height="20" as="geometry"/>
                </mxCell>
                <mxCell id="281" value="wD" style="text;html=1;align=center;verticalAlign=middle;resizable=0;points=[];autosize=1;strokeColor=none;fillColor=none;" parent="1" vertex="1">
                    <mxGeometry x="1514" y="617" width="30" height="20" as="geometry"/>
                </mxCell>
                <mxCell id="282" value="" style="endArrow=classic;html=1;entryX=-0.067;entryY=0.6;entryDx=0;entryDy=0;entryPerimeter=0;" parent="1" target="353" edge="1">
                    <mxGeometry width="50" height="50" relative="1" as="geometry">
                        <mxPoint x="1439" y="597" as="sourcePoint"/>
                        <mxPoint x="1690" y="700" as="targetPoint"/>
                        <Array as="points">
                            <mxPoint x="1470" y="596"/>
                            <mxPoint x="1470" y="700"/>
                        </Array>
                    </mxGeometry>
                </mxCell>
                <mxCell id="283" style="edgeStyle=none;html=1;exitX=0.54;exitY=1;exitDx=0;exitDy=0;startArrow=none;exitPerimeter=0;entryX=-0.05;entryY=0.295;entryDx=0;entryDy=0;entryPerimeter=0;" parent="1" source="303" target="311" edge="1">
                    <mxGeometry relative="1" as="geometry">
                        <Array as="points">
                            <mxPoint x="1541" y="440"/>
                        </Array>
                        <mxPoint x="1730" y="450" as="targetPoint"/>
                    </mxGeometry>
                </mxCell>
                <mxCell id="284" value="BSel" style="edgeLabel;html=1;align=center;verticalAlign=middle;resizable=0;points=[];" parent="1" vertex="1" connectable="0">
                    <mxGeometry x="1601.5714285714287" y="287" as="geometry"/>
                </mxCell>
                <mxCell id="285" style="edgeStyle=none;html=1;exitX=1;exitY=0.75;exitDx=0;exitDy=0;entryX=0.75;entryY=0;entryDx=0;entryDy=0;" parent="1" source="289" target="270" edge="1">
                    <mxGeometry relative="1" as="geometry">
                        <mxPoint x="1519" y="777" as="targetPoint"/>
                        <Array as="points">
                            <mxPoint x="1629" y="310"/>
                            <mxPoint x="1629" y="377"/>
                            <mxPoint x="1509" y="377"/>
                            <mxPoint x="1509" y="720"/>
                            <mxPoint x="1455" y="720"/>
                        </Array>
                    </mxGeometry>
                </mxCell>
                <mxCell id="286" value="EXTop" style="edgeLabel;html=1;align=center;verticalAlign=middle;resizable=0;points=[];" parent="285" vertex="1" connectable="0">
                    <mxGeometry x="-0.5382" y="-2" relative="1" as="geometry">
                        <mxPoint x="18" y="-68" as="offset"/>
                    </mxGeometry>
                </mxCell>
                <mxCell id="287" style="edgeStyle=none;html=1;exitX=0.5;exitY=1;exitDx=0;exitDy=0;entryX=0.025;entryY=0.225;entryDx=0;entryDy=0;entryPerimeter=0;" parent="1" source="289" target="311" edge="1">
                    <mxGeometry relative="1" as="geometry">
                        <mxPoint x="1600" y="460" as="targetPoint"/>
                        <Array as="points">
                            <mxPoint x="1554" y="400"/>
                        </Array>
                    </mxGeometry>
                </mxCell>
                <mxCell id="288" value="RFWr" style="edgeLabel;html=1;align=center;verticalAlign=middle;resizable=0;points=[];" parent="287" vertex="1" connectable="0">
                    <mxGeometry x="-0.8951" y="6" relative="1" as="geometry">
                        <mxPoint x="-1" y="10" as="offset"/>
                    </mxGeometry>
                </mxCell>
                <mxCell id="289" value="CTRL" style="rounded=0;whiteSpace=wrap;html=1;" parent="1" vertex="1">
                    <mxGeometry x="1519" y="227" width="70" height="110" as="geometry"/>
                </mxCell>
                <mxCell id="290" value="" style="endArrow=classic;html=1;entryX=0;entryY=0.186;entryDx=0;entryDy=0;entryPerimeter=0;" parent="1" edge="1">
                    <mxGeometry width="50" height="50" relative="1" as="geometry">
                        <mxPoint x="1439" y="256" as="sourcePoint"/>
                        <mxPoint x="1519" y="256.4599999999999" as="targetPoint"/>
                    </mxGeometry>
                </mxCell>
                <mxCell id="291" value="6:0" style="text;html=1;align=center;verticalAlign=middle;resizable=0;points=[];autosize=1;strokeColor=none;fillColor=none;" parent="1" vertex="1">
                    <mxGeometry x="1439" y="237" width="30" height="20" as="geometry"/>
                </mxCell>
                <mxCell id="292" value="" style="endArrow=classic;html=1;entryX=0;entryY=0.186;entryDx=0;entryDy=0;entryPerimeter=0;" parent="1" edge="1">
                    <mxGeometry width="50" height="50" relative="1" as="geometry">
                        <mxPoint x="1439" y="286" as="sourcePoint"/>
                        <mxPoint x="1519" y="286.4599999999999" as="targetPoint"/>
                    </mxGeometry>
                </mxCell>
                <mxCell id="293" value="" style="endArrow=classic;html=1;entryX=0;entryY=0.186;entryDx=0;entryDy=0;entryPerimeter=0;" parent="1" edge="1">
                    <mxGeometry width="50" height="50" relative="1" as="geometry">
                        <mxPoint x="1439" y="326" as="sourcePoint"/>
                        <mxPoint x="1519" y="326.4599999999999" as="targetPoint"/>
                    </mxGeometry>
                </mxCell>
                <mxCell id="294" value="opcode" style="text;html=1;align=center;verticalAlign=middle;resizable=0;points=[];autosize=1;strokeColor=none;fillColor=none;" parent="1" vertex="1">
                    <mxGeometry x="1514" y="247" width="50" height="20" as="geometry"/>
                </mxCell>
                <mxCell id="295" value="fun3" style="text;html=1;align=center;verticalAlign=middle;resizable=0;points=[];autosize=1;strokeColor=none;fillColor=none;" parent="1" vertex="1">
                    <mxGeometry x="1514" y="287" width="40" height="20" as="geometry"/>
                </mxCell>
                <mxCell id="296" value="fun7" style="text;html=1;align=center;verticalAlign=middle;resizable=0;points=[];autosize=1;strokeColor=none;fillColor=none;" parent="1" vertex="1">
                    <mxGeometry x="1514" y="317" width="40" height="20" as="geometry"/>
                </mxCell>
                <mxCell id="297" value="rD1" style="text;html=1;align=center;verticalAlign=middle;resizable=0;points=[];autosize=1;strokeColor=none;fillColor=none;" parent="1" vertex="1">
                    <mxGeometry x="1559" y="532" width="30" height="20" as="geometry"/>
                </mxCell>
                <mxCell id="298" value="rD2" style="text;html=1;align=center;verticalAlign=middle;resizable=0;points=[];autosize=1;strokeColor=none;fillColor=none;" parent="1" vertex="1">
                    <mxGeometry x="1559" y="609.5" width="30" height="20" as="geometry"/>
                </mxCell>
                <mxCell id="299" value="NPCop[2:1]" style="text;html=1;align=center;verticalAlign=middle;resizable=0;points=[];autosize=1;strokeColor=none;fillColor=none;" parent="1" vertex="1">
                    <mxGeometry x="1494" y="190" width="80" height="20" as="geometry"/>
                </mxCell>
                <mxCell id="300" value="" style="triangle;whiteSpace=wrap;html=1;rotation=-90;" parent="1" vertex="1">
                    <mxGeometry x="1549" y="627" width="10" height="10" as="geometry"/>
                </mxCell>
                <mxCell id="301" value="ALUop[3:0]" style="text;html=1;align=center;verticalAlign=middle;resizable=0;points=[];autosize=1;strokeColor=none;fillColor=none;" parent="1" vertex="1">
                    <mxGeometry x="1604" y="237" width="80" height="20" as="geometry"/>
                </mxCell>
                <mxCell id="303" value="WDSel" style="text;html=1;align=center;verticalAlign=middle;resizable=0;points=[];autosize=1;strokeColor=none;fillColor=none;" parent="1" vertex="1">
                    <mxGeometry x="1514" y="407" width="50" height="20" as="geometry"/>
                </mxCell>
                <mxCell id="304" value="" style="edgeStyle=none;html=1;exitX=0.25;exitY=1;exitDx=0;exitDy=0;endArrow=none;" parent="1" source="289" target="303" edge="1">
                    <mxGeometry relative="1" as="geometry">
                        <mxPoint x="1536.5" y="337.0000000000001" as="sourcePoint"/>
                        <mxPoint x="1489" y="604.5" as="targetPoint"/>
                        <Array as="points">
                            <mxPoint x="1537" y="367"/>
                        </Array>
                    </mxGeometry>
                </mxCell>
                <mxCell id="305" value="ASel" style="edgeLabel;html=1;align=center;verticalAlign=middle;resizable=0;points=[];" parent="1" vertex="1" connectable="0">
                    <mxGeometry x="1603.714085520004" y="267.00805716289597" as="geometry"/>
                </mxCell>
                <mxCell id="306" value="WEn" style="text;html=1;align=center;verticalAlign=middle;resizable=0;points=[];autosize=1;strokeColor=none;fillColor=none;" parent="1" vertex="1">
                    <mxGeometry x="1589" y="217" width="40" height="20" as="geometry"/>
                </mxCell>
                <mxCell id="307" value="inst[11:7]" style="text;html=1;align=center;verticalAlign=middle;resizable=0;points=[];autosize=1;strokeColor=none;fillColor=none;" parent="1" vertex="1">
                    <mxGeometry x="1409" y="573.5" width="60" height="20" as="geometry"/>
                </mxCell>
                <mxCell id="308" value="" style="endArrow=none;html=1;entryX=0.496;entryY=-0.098;entryDx=0;entryDy=0;entryPerimeter=0;" parent="1" target="307" edge="1">
                    <mxGeometry width="50" height="50" relative="1" as="geometry">
                        <mxPoint x="1439" y="757" as="sourcePoint"/>
                        <mxPoint x="1439" y="257" as="targetPoint"/>
                    </mxGeometry>
                </mxCell>
                <mxCell id="311" value="ID/EX" style="rounded=0;whiteSpace=wrap;html=1;" parent="1" vertex="1">
                    <mxGeometry x="1740" y="275" width="40" height="560" as="geometry"/>
                </mxCell>
                <mxCell id="312" value="ALU" style="shape=trapezoid;perimeter=trapezoidPerimeter;whiteSpace=wrap;html=1;fixedSize=1;rotation=90;" parent="1" vertex="1">
                    <mxGeometry x="1790" y="531.63" width="195" height="98.75" as="geometry"/>
                </mxCell>
                <mxCell id="313" value="A" style="text;html=1;align=center;verticalAlign=middle;resizable=0;points=[];autosize=1;strokeColor=none;fillColor=none;" parent="1" vertex="1">
                    <mxGeometry x="1838.12" y="513.5" width="20" height="20" as="geometry"/>
                </mxCell>
                <mxCell id="314" value="B" style="text;html=1;align=center;verticalAlign=middle;resizable=0;points=[];autosize=1;strokeColor=none;fillColor=none;" parent="1" vertex="1">
                    <mxGeometry x="1838.12" y="633.5" width="20" height="20" as="geometry"/>
                </mxCell>
                <mxCell id="315" value="C" style="text;html=1;align=center;verticalAlign=middle;resizable=0;points=[];autosize=1;strokeColor=none;fillColor=none;" parent="1" vertex="1">
                    <mxGeometry x="1908.12" y="573.5" width="20" height="20" as="geometry"/>
                </mxCell>
                <mxCell id="317" value="branch" style="text;html=1;align=center;verticalAlign=middle;resizable=0;points=[];autosize=1;strokeColor=none;fillColor=none;" parent="1" vertex="1">
                    <mxGeometry x="1862.5" y="104.5" width="50" height="20" as="geometry"/>
                </mxCell>
                <mxCell id="318" value="EX/MEM" style="rounded=0;whiteSpace=wrap;html=1;" parent="1" vertex="1">
                    <mxGeometry x="2025" y="281" width="40" height="560" as="geometry"/>
                </mxCell>
                <mxCell id="319" value="DRAM" style="rounded=0;whiteSpace=wrap;html=1;" parent="1" vertex="1">
                    <mxGeometry x="2145" y="810" width="110" height="167" as="geometry"/>
                </mxCell>
                <mxCell id="320" value="adr" style="text;html=1;align=center;verticalAlign=middle;resizable=0;points=[];autosize=1;strokeColor=none;fillColor=none;" parent="1" vertex="1">
                    <mxGeometry x="2145" y="887" width="30" height="20" as="geometry"/>
                </mxCell>
                <mxCell id="321" value="wdin" style="text;html=1;align=center;verticalAlign=middle;resizable=0;points=[];autosize=1;strokeColor=none;fillColor=none;" parent="1" vertex="1">
                    <mxGeometry x="2140" y="942" width="40" height="20" as="geometry"/>
                </mxCell>
                <mxCell id="322" value="WEn" style="text;html=1;align=center;verticalAlign=middle;resizable=0;points=[];autosize=1;strokeColor=none;fillColor=none;" parent="1" vertex="1">
                    <mxGeometry x="2205" y="810" width="40" height="20" as="geometry"/>
                </mxCell>
                <mxCell id="323" value="rd" style="text;html=1;align=center;verticalAlign=middle;resizable=0;points=[];autosize=1;strokeColor=none;fillColor=none;" parent="1" vertex="1">
                    <mxGeometry x="2225" y="883.5" width="30" height="20" as="geometry"/>
                </mxCell>
                <mxCell id="324" value="" style="triangle;whiteSpace=wrap;html=1;rotation=-90;" parent="1" vertex="1">
                    <mxGeometry x="2195" y="967" width="10" height="10" as="geometry"/>
                </mxCell>
                <mxCell id="325" value="MEM/WB" style="rounded=0;whiteSpace=wrap;html=1;" parent="1" vertex="1">
                    <mxGeometry x="2350" y="275" width="40" height="560" as="geometry"/>
                </mxCell>
                <mxCell id="326" value="" style="endArrow=classic;html=1;exitX=1.057;exitY=0.582;exitDx=0;exitDy=0;exitPerimeter=0;entryX=0.5;entryY=0;entryDx=0;entryDy=0;" parent="1" source="289" target="350" edge="1">
                    <mxGeometry width="50" height="50" relative="1" as="geometry">
                        <mxPoint x="1670" y="210" as="sourcePoint"/>
                        <mxPoint x="1720" y="160" as="targetPoint"/>
                        <Array as="points">
                            <mxPoint x="1650" y="291"/>
                            <mxPoint x="1650" y="580"/>
                            <mxPoint x="1639" y="580"/>
                        </Array>
                    </mxGeometry>
                </mxCell>
                <mxCell id="327" value="" style="endArrow=classic;html=1;exitX=1.029;exitY=0.382;exitDx=0;exitDy=0;exitPerimeter=0;entryX=0.742;entryY=-0.292;entryDx=0;entryDy=0;entryPerimeter=0;" parent="1" source="289" target="346" edge="1">
                    <mxGeometry width="50" height="50" relative="1" as="geometry">
                        <mxPoint x="1650" y="210" as="sourcePoint"/>
                        <mxPoint x="1650" y="430" as="targetPoint"/>
                        <Array as="points">
                            <mxPoint x="1660" y="269"/>
                            <mxPoint x="1660" y="430"/>
                            <mxPoint x="1619" y="430"/>
                        </Array>
                    </mxGeometry>
                </mxCell>
                <mxCell id="328" value="" style="endArrow=classic;html=1;entryX=-0.05;entryY=0.136;entryDx=0;entryDy=0;entryPerimeter=0;" parent="1" target="311" edge="1">
                    <mxGeometry width="50" height="50" relative="1" as="geometry">
                        <mxPoint x="1590" y="250" as="sourcePoint"/>
                        <mxPoint x="1720" y="354" as="targetPoint"/>
                        <Array as="points">
                            <mxPoint x="1670" y="250"/>
                            <mxPoint x="1670" y="351"/>
                        </Array>
                    </mxGeometry>
                </mxCell>
                <mxCell id="329" value="" style="endArrow=classic;html=1;exitX=-0.075;exitY=0.55;exitDx=0;exitDy=0;exitPerimeter=0;entryX=-0.025;entryY=0.071;entryDx=0;entryDy=0;entryPerimeter=0;" parent="1" source="306" target="311" edge="1">
                    <mxGeometry width="50" height="50" relative="1" as="geometry">
                        <mxPoint x="1690" y="220" as="sourcePoint"/>
                        <mxPoint x="1740" y="170" as="targetPoint"/>
                        <Array as="points">
                            <mxPoint x="1690" y="228"/>
                            <mxPoint x="1690" y="315"/>
                        </Array>
                    </mxGeometry>
                </mxCell>
                <mxCell id="330" value="" style="endArrow=classic;html=1;exitX=0.25;exitY=0;exitDx=0;exitDy=0;entryX=0.025;entryY=0.043;entryDx=0;entryDy=0;entryPerimeter=0;" parent="1" source="289" target="311" edge="1">
                    <mxGeometry width="50" height="50" relative="1" as="geometry">
                        <mxPoint x="1640" y="180" as="sourcePoint"/>
                        <mxPoint x="1690" y="130" as="targetPoint"/>
                        <Array as="points">
                            <mxPoint x="1537" y="180"/>
                            <mxPoint x="1710" y="180"/>
                            <mxPoint x="1710" y="299"/>
                        </Array>
                    </mxGeometry>
                </mxCell>
                <mxCell id="331" value="" style="endArrow=none;html=1;exitX=1.067;exitY=0.625;exitDx=0;exitDy=0;exitPerimeter=0;entryX=0.5;entryY=0.95;entryDx=0;entryDy=0;entryPerimeter=0;" parent="1" source="332" target="275" edge="1">
                    <mxGeometry width="50" height="50" relative="1" as="geometry">
                        <mxPoint x="1380" y="470" as="sourcePoint"/>
                        <mxPoint x="1430" y="420" as="targetPoint"/>
                        <Array as="points">
                            <mxPoint x="1390" y="500"/>
                            <mxPoint x="1390" y="546"/>
                        </Array>
                    </mxGeometry>
                </mxCell>
                <mxCell id="332" value="&lt;font style=&quot;font-size: 10px&quot;&gt;inst&lt;/font&gt;" style="text;html=1;align=center;verticalAlign=middle;resizable=0;points=[];autosize=1;strokeColor=none;fillColor=none;" parent="1" vertex="1">
                    <mxGeometry x="1325" y="487" width="30" height="20" as="geometry"/>
                </mxCell>
                <mxCell id="334" value="" style="endArrow=classic;html=1;fontSize=10;entryX=0;entryY=0.25;entryDx=0;entryDy=0;" parent="1" edge="1">
                    <mxGeometry width="50" height="50" relative="1" as="geometry">
                        <mxPoint x="1160" y="505" as="sourcePoint"/>
                        <mxPoint x="1320" y="410" as="targetPoint"/>
                        <Array as="points">
                            <mxPoint x="1160" y="410"/>
                        </Array>
                    </mxGeometry>
                </mxCell>
                <mxCell id="335" value="pc" style="text;html=1;align=center;verticalAlign=middle;resizable=0;points=[];autosize=1;strokeColor=none;fillColor=none;fontSize=10;" parent="1" vertex="1">
                    <mxGeometry x="1325" y="401.5" width="30" height="20" as="geometry"/>
                </mxCell>
                <mxCell id="336" value="inst[31:7]" style="text;html=1;align=center;verticalAlign=middle;resizable=0;points=[];autosize=1;strokeColor=none;fillColor=none;" parent="1" vertex="1">
                    <mxGeometry x="1394" y="660" width="60" height="20" as="geometry"/>
                </mxCell>
                <mxCell id="339" value="" style="endArrow=classic;html=1;fontSize=10;exitX=0.939;exitY=0.458;exitDx=0;exitDy=0;exitPerimeter=0;entryX=-0.092;entryY=0.914;entryDx=0;entryDy=0;entryPerimeter=0;" parent="1" source="273" target="311" edge="1">
                    <mxGeometry width="50" height="50" relative="1" as="geometry">
                        <mxPoint x="1610" y="820" as="sourcePoint"/>
                        <mxPoint x="1660" y="770" as="targetPoint"/>
                    </mxGeometry>
                </mxCell>
                <mxCell id="340" value="" style="endArrow=classic;html=1;fontSize=10;exitX=0.989;exitY=0.442;exitDx=0;exitDy=0;exitPerimeter=0;entryX=0.158;entryY=0.583;entryDx=0;entryDy=0;entryPerimeter=0;" parent="1" source="335" target="346" edge="1">
                    <mxGeometry width="50" height="50" relative="1" as="geometry">
                        <mxPoint x="1420" y="470" as="sourcePoint"/>
                        <mxPoint x="1640" y="490" as="targetPoint"/>
                        <Array as="points">
                            <mxPoint x="1460" y="410"/>
                            <mxPoint x="1460" y="500"/>
                        </Array>
                    </mxGeometry>
                </mxCell>
                <mxCell id="348" style="edgeStyle=none;html=1;exitX=1;exitY=0.5;exitDx=0;exitDy=0;fontSize=10;" parent="1" source="344" target="349" edge="1">
                    <mxGeometry relative="1" as="geometry"/>
                </mxCell>
                <mxCell id="344" value="" style="rounded=0;whiteSpace=wrap;html=1;" parent="1" vertex="1">
                    <mxGeometry x="1604" y="487" width="30" height="70" as="geometry"/>
                </mxCell>
                <mxCell id="345" value="&lt;font style=&quot;font-size: 12px&quot;&gt;0&lt;/font&gt;" style="text;html=1;align=center;verticalAlign=middle;resizable=0;points=[];autosize=1;strokeColor=none;fillColor=none;fontSize=8;" parent="1" vertex="1">
                    <mxGeometry x="1604" y="530.13" width="20" height="20" as="geometry"/>
                </mxCell>
                <mxCell id="346" value="1" style="text;html=1;align=center;verticalAlign=middle;resizable=0;points=[];autosize=1;strokeColor=none;fillColor=none;fontSize=12;" parent="1" vertex="1">
                    <mxGeometry x="1604" y="492" width="20" height="20" as="geometry"/>
                </mxCell>
                <mxCell id="347" value="" style="endArrow=classic;html=1;fontSize=10;entryX=0.2;entryY=0.552;entryDx=0;entryDy=0;entryPerimeter=0;" parent="1" source="297" target="345" edge="1">
                    <mxGeometry width="50" height="50" relative="1" as="geometry">
                        <mxPoint x="1640" y="610" as="sourcePoint"/>
                        <mxPoint x="1690" y="560" as="targetPoint"/>
                    </mxGeometry>
                </mxCell>
                <mxCell id="361" value="" style="edgeStyle=none;html=1;fontSize=10;" parent="1" source="349" target="313" edge="1">
                    <mxGeometry relative="1" as="geometry"/>
                </mxCell>
                <mxCell id="349" value="A" style="text;html=1;align=center;verticalAlign=middle;resizable=0;points=[];autosize=1;strokeColor=none;fillColor=none;fontSize=10;" parent="1" vertex="1">
                    <mxGeometry x="1749.94" y="522.5" width="20" height="20" as="geometry"/>
                </mxCell>
                <mxCell id="357" style="edgeStyle=none;html=1;exitX=1;exitY=0.5;exitDx=0;exitDy=0;entryX=-0.058;entryY=0.542;entryDx=0;entryDy=0;entryPerimeter=0;fontSize=10;" parent="1" source="350" target="356" edge="1">
                    <mxGeometry relative="1" as="geometry"/>
                </mxCell>
                <mxCell id="350" value="" style="rounded=0;whiteSpace=wrap;html=1;" parent="1" vertex="1">
                    <mxGeometry x="1624" y="609.5" width="30" height="70" as="geometry"/>
                </mxCell>
                <mxCell id="351" value="0" style="text;html=1;align=center;verticalAlign=middle;resizable=0;points=[];autosize=1;strokeColor=none;fillColor=none;fontSize=12;" parent="1" vertex="1">
                    <mxGeometry x="1624" y="614.5" width="20" height="20" as="geometry"/>
                </mxCell>
                <mxCell id="352" value="1" style="text;html=1;align=center;verticalAlign=middle;resizable=0;points=[];autosize=1;strokeColor=none;fillColor=none;fontSize=12;" parent="1" vertex="1">
                    <mxGeometry x="1624" y="652" width="20" height="20" as="geometry"/>
                </mxCell>
                <mxCell id="353" value="WR" style="text;html=1;align=center;verticalAlign=middle;resizable=0;points=[];autosize=1;strokeColor=none;fillColor=none;fontSize=10;" parent="1" vertex="1">
                    <mxGeometry x="1745" y="699.5" width="30" height="20" as="geometry"/>
                </mxCell>
                <mxCell id="354" value="" style="endArrow=classic;html=1;fontSize=10;exitX=0.911;exitY=0.542;exitDx=0;exitDy=0;exitPerimeter=0;" parent="1" source="298" target="351" edge="1">
                    <mxGeometry width="50" height="50" relative="1" as="geometry">
                        <mxPoint x="1660" y="650" as="sourcePoint"/>
                        <mxPoint x="1710" y="600" as="targetPoint"/>
                    </mxGeometry>
                </mxCell>
                <mxCell id="355" value="" style="endArrow=classic;html=1;fontSize=10;entryX=0.025;entryY=0.5;entryDx=0;entryDy=0;entryPerimeter=0;" parent="1" target="352" edge="1">
                    <mxGeometry width="50" height="50" relative="1" as="geometry">
                        <mxPoint x="1540" y="787" as="sourcePoint"/>
                        <mxPoint x="1590" y="717" as="targetPoint"/>
                        <Array as="points">
                            <mxPoint x="1540" y="662"/>
                        </Array>
                    </mxGeometry>
                </mxCell>
                <mxCell id="362" value="" style="edgeStyle=none;html=1;fontSize=10;" parent="1" source="356" target="314" edge="1">
                    <mxGeometry relative="1" as="geometry"/>
                </mxCell>
                <mxCell id="356" value="B" style="text;html=1;align=center;verticalAlign=middle;resizable=0;points=[];autosize=1;strokeColor=none;fillColor=none;fontSize=10;" parent="1" vertex="1">
                    <mxGeometry x="1745" y="634.5" width="20" height="20" as="geometry"/>
                </mxCell>
                <mxCell id="358" value="ext" style="text;html=1;align=center;verticalAlign=middle;resizable=0;points=[];autosize=1;strokeColor=none;fillColor=none;fontSize=10;" parent="1" vertex="1">
                    <mxGeometry x="1745" y="777" width="30" height="20" as="geometry"/>
                </mxCell>
                <mxCell id="359" value="" style="endArrow=classic;html=1;fontSize=10;entryX=-0.122;entryY=0.433;entryDx=0;entryDy=0;entryPerimeter=0;" parent="1" target="360" edge="1">
                    <mxGeometry width="50" height="50" relative="1" as="geometry">
                        <mxPoint x="1600" y="620" as="sourcePoint"/>
                        <mxPoint x="1720" y="550" as="targetPoint"/>
                        <Array as="points">
                            <mxPoint x="1600" y="594"/>
                        </Array>
                    </mxGeometry>
                </mxCell>
                <mxCell id="360" value="rD2" style="text;html=1;align=center;verticalAlign=middle;resizable=0;points=[];autosize=1;strokeColor=none;fillColor=none;fontSize=10;" parent="1" vertex="1">
                    <mxGeometry x="1745" y="585" width="30" height="20" as="geometry"/>
                </mxCell>
                <mxCell id="363" value="NPC" style="whiteSpace=wrap;html=1;aspect=fixed;" parent="1" vertex="1">
                    <mxGeometry x="1810" y="810" width="143" height="143" as="geometry"/>
                </mxCell>
                <mxCell id="364" value="pc" style="text;html=1;align=center;verticalAlign=middle;resizable=0;points=[];autosize=1;strokeColor=none;fillColor=none;" parent="1" vertex="1">
                    <mxGeometry x="1828.12" y="810" width="30" height="20" as="geometry"/>
                </mxCell>
                <mxCell id="365" value="imm" style="text;html=1;align=center;verticalAlign=middle;resizable=0;points=[];autosize=1;strokeColor=none;fillColor=none;" parent="1" vertex="1">
                    <mxGeometry x="1810" y="848" width="40" height="20" as="geometry"/>
                </mxCell>
                <mxCell id="366" value="ra" style="text;html=1;align=center;verticalAlign=middle;resizable=0;points=[];autosize=1;strokeColor=none;fillColor=none;" parent="1" vertex="1">
                    <mxGeometry x="1908.12" y="810" width="30" height="20" as="geometry"/>
                </mxCell>
                <mxCell id="367" value="npc" style="text;html=1;align=center;verticalAlign=middle;resizable=0;points=[];autosize=1;strokeColor=none;fillColor=none;" parent="1" vertex="1">
                    <mxGeometry x="1840" y="933" width="30" height="20" as="geometry"/>
                </mxCell>
                <mxCell id="368" value="pc4" style="text;html=1;align=center;verticalAlign=middle;resizable=0;points=[];autosize=1;strokeColor=none;fillColor=none;" parent="1" vertex="1">
                    <mxGeometry x="1923" y="848" width="30" height="20" as="geometry"/>
                </mxCell>
                <mxCell id="369" value="" style="endArrow=classic;html=1;fontSize=10;entryX=0;entryY=0.33;entryDx=0;entryDy=0;entryPerimeter=0;" parent="1" target="311" edge="1">
                    <mxGeometry width="50" height="50" relative="1" as="geometry">
                        <mxPoint x="1460" y="460" as="sourcePoint"/>
                        <mxPoint x="1530" y="450" as="targetPoint"/>
                    </mxGeometry>
                </mxCell>
                <mxCell id="370" value="PC" style="text;html=1;align=center;verticalAlign=middle;resizable=0;points=[];autosize=1;strokeColor=none;fillColor=none;fontSize=10;" parent="1" vertex="1">
                    <mxGeometry x="1745" y="460" width="30" height="20" as="geometry"/>
                </mxCell>
                <mxCell id="371" value="WDSel" style="text;html=1;align=center;verticalAlign=middle;resizable=0;points=[];autosize=1;strokeColor=none;fillColor=none;" parent="1" vertex="1">
                    <mxGeometry x="1735" y="430" width="50" height="20" as="geometry"/>
                </mxCell>
                <mxCell id="374" value="RFWr" style="edgeLabel;html=1;align=center;verticalAlign=middle;resizable=0;points=[];" parent="1" vertex="1" connectable="0">
                    <mxGeometry x="1760" y="401.5033333333334" as="geometry"/>
                </mxCell>
                <mxCell id="375" value="ALUop" style="text;html=1;align=center;verticalAlign=middle;resizable=0;points=[];autosize=1;strokeColor=none;fillColor=none;" parent="1" vertex="1">
                    <mxGeometry x="1735" y="337" width="50" height="20" as="geometry"/>
                </mxCell>
                <mxCell id="376" value="WEn" style="text;html=1;align=center;verticalAlign=middle;resizable=0;points=[];autosize=1;strokeColor=none;fillColor=none;" parent="1" vertex="1">
                    <mxGeometry x="1735" y="307" width="40" height="20" as="geometry"/>
                </mxCell>
                <mxCell id="377" value="NPCop" style="text;html=1;align=center;verticalAlign=middle;resizable=0;points=[];autosize=1;strokeColor=none;fillColor=none;" parent="1" vertex="1">
                    <mxGeometry x="1735" y="287" width="50" height="20" as="geometry"/>
                </mxCell>
                <mxCell id="378" value="" style="endArrow=classic;html=1;fontSize=10;exitX=1.1;exitY=0.517;exitDx=0;exitDy=0;exitPerimeter=0;entryX=0.302;entryY=0.042;entryDx=0;entryDy=0;entryPerimeter=0;" parent="1" source="370" target="364" edge="1">
                    <mxGeometry width="50" height="50" relative="1" as="geometry">
                        <mxPoint x="1830" y="750" as="sourcePoint"/>
                        <mxPoint x="1880" y="700" as="targetPoint"/>
                        <Array as="points">
                            <mxPoint x="1800" y="470"/>
                            <mxPoint x="1810" y="740"/>
                            <mxPoint x="1837" y="740"/>
                        </Array>
                    </mxGeometry>
                </mxCell>
                <mxCell id="379" value="" style="endArrow=classic;html=1;fontSize=10;exitX=1.119;exitY=0.508;exitDx=0;exitDy=0;exitPerimeter=0;entryX=-0.275;entryY=0.387;entryDx=0;entryDy=0;entryPerimeter=0;" parent="1" source="315" target="380" edge="1">
                    <mxGeometry width="50" height="50" relative="1" as="geometry">
                        <mxPoint x="1910" y="680" as="sourcePoint"/>
                        <mxPoint x="1960" y="680" as="targetPoint"/>
                        <Array as="points">
                            <mxPoint x="1990" y="584"/>
                        </Array>
                    </mxGeometry>
                </mxCell>
                <mxCell id="381" value="" style="endArrow=classic;html=1;fontSize=10;entryX=0.524;entryY=-0.042;entryDx=0;entryDy=0;entryPerimeter=0;" parent="1" target="366" edge="1">
                    <mxGeometry width="50" height="50" relative="1" as="geometry">
                        <mxPoint x="1950" y="580" as="sourcePoint"/>
                        <mxPoint x="1880" y="740" as="targetPoint"/>
                        <Array as="points">
                            <mxPoint x="1950" y="750"/>
                            <mxPoint x="1924" y="750"/>
                        </Array>
                    </mxGeometry>
                </mxCell>
                <mxCell id="383" value="" style="endArrow=classic;html=1;fontSize=10;exitX=0.96;exitY=0.75;exitDx=0;exitDy=0;exitPerimeter=0;entryX=0.5;entryY=0;entryDx=0;entryDy=0;" parent="1" source="377" target="363" edge="1">
                    <mxGeometry width="50" height="50" relative="1" as="geometry">
                        <mxPoint x="1810" y="350" as="sourcePoint"/>
                        <mxPoint x="1810" y="400" as="targetPoint"/>
                        <Array as="points">
                            <mxPoint x="1820" y="302"/>
                            <mxPoint x="1820" y="720"/>
                            <mxPoint x="1882" y="720"/>
                        </Array>
                    </mxGeometry>
                </mxCell>
                <mxCell id="384" value="" style="endArrow=classic;html=1;fontSize=10;exitX=0.989;exitY=0.642;exitDx=0;exitDy=0;exitPerimeter=0;entryX=0.054;entryY=0.732;entryDx=0;entryDy=0;entryPerimeter=0;" parent="1" source="360" target="318" edge="1">
                    <mxGeometry width="50" height="50" relative="1" as="geometry">
                        <mxPoint x="1840" y="440" as="sourcePoint"/>
                        <mxPoint x="1890" y="440" as="targetPoint"/>
                        <Array as="points">
                            <mxPoint x="1830" y="598"/>
                            <mxPoint x="1830" y="690"/>
                        </Array>
                    </mxGeometry>
                </mxCell>
                <mxCell id="385" value="rD2" style="text;html=1;align=center;verticalAlign=middle;resizable=0;points=[];autosize=1;strokeColor=none;fillColor=none;fontSize=10;" parent="1" vertex="1">
                    <mxGeometry x="2030" y="678.5" width="30" height="20" as="geometry"/>
                </mxCell>
                <mxCell id="386" value="" style="endArrow=classic;html=1;fontSize=10;entryX=0.117;entryY=0.55;entryDx=0;entryDy=0;entryPerimeter=0;" parent="1" source="385" target="321" edge="1">
                    <mxGeometry width="50" height="50" relative="1" as="geometry">
                        <mxPoint x="2070" y="699" as="sourcePoint"/>
                        <mxPoint x="2120" y="699" as="targetPoint"/>
                        <Array as="points">
                            <mxPoint x="2080" y="689"/>
                            <mxPoint x="2080" y="953"/>
                        </Array>
                    </mxGeometry>
                </mxCell>
                <mxCell id="387" value="" style="endArrow=classic;html=1;fontSize=10;exitX=1.192;exitY=0.717;exitDx=0;exitDy=0;exitPerimeter=0;entryX=-0.011;entryY=0.425;entryDx=0;entryDy=0;entryPerimeter=0;" parent="1" source="380" target="320" edge="1">
                    <mxGeometry width="50" height="50" relative="1" as="geometry">
                        <mxPoint x="2100" y="619" as="sourcePoint"/>
                        <mxPoint x="2150" y="619" as="targetPoint"/>
                        <Array as="points">
                            <mxPoint x="2110" y="609"/>
                            <mxPoint x="2110" y="896"/>
                        </Array>
                    </mxGeometry>
                </mxCell>
                <mxCell id="391" value="" style="endArrow=classic;html=1;fontSize=10;entryX=0.043;entryY=0.517;entryDx=0;entryDy=0;entryPerimeter=0;" parent="1" source="371" target="392" edge="1">
                    <mxGeometry width="50" height="50" relative="1" as="geometry">
                        <mxPoint x="1790" y="441.9" as="sourcePoint"/>
                        <mxPoint x="1980" y="442" as="targetPoint"/>
                    </mxGeometry>
                </mxCell>
                <mxCell id="392" value="WDSel" style="text;html=1;align=center;verticalAlign=middle;resizable=0;points=[];autosize=1;strokeColor=none;fillColor=none;" parent="1" vertex="1">
                    <mxGeometry x="2020" y="429" width="50" height="20" as="geometry"/>
                </mxCell>
                <mxCell id="395" value="" style="endArrow=classic;html=1;fontSize=10;exitX=0.992;exitY=0.222;exitDx=0;exitDy=0;exitPerimeter=0;entryX=0.125;entryY=0.211;entryDx=0;entryDy=0;entryPerimeter=0;" parent="1" source="311" target="318" edge="1">
                    <mxGeometry width="50" height="50" relative="1" as="geometry">
                        <mxPoint x="1850" y="400" as="sourcePoint"/>
                        <mxPoint x="1900" y="400" as="targetPoint"/>
                    </mxGeometry>
                </mxCell>
                <mxCell id="396" value="RFWr" style="edgeLabel;html=1;align=center;verticalAlign=middle;resizable=0;points=[];" parent="1" vertex="1" connectable="0">
                    <mxGeometry x="2045" y="400.5033333333334" as="geometry"/>
                </mxCell>
                <mxCell id="397" value="" style="endArrow=classic;html=1;fontSize=10;exitX=0.943;exitY=0.542;exitDx=0;exitDy=0;exitPerimeter=0;entryX=0;entryY=0.5;entryDx=0;entryDy=0;" parent="1" source="375" target="312" edge="1">
                    <mxGeometry width="50" height="50" relative="1" as="geometry">
                        <mxPoint x="1830" y="350" as="sourcePoint"/>
                        <mxPoint x="1880" y="350" as="targetPoint"/>
                        <Array as="points">
                            <mxPoint x="1888" y="348"/>
                        </Array>
                    </mxGeometry>
                </mxCell>
                <mxCell id="399" value="WEn" style="text;html=1;align=center;verticalAlign=middle;resizable=0;points=[];autosize=1;strokeColor=none;fillColor=none;" parent="1" vertex="1">
                    <mxGeometry x="2020" y="306" width="40" height="20" as="geometry"/>
                </mxCell>
                <mxCell id="400" value="" style="endArrow=classic;html=1;fontSize=10;exitX=0.992;exitY=0.076;exitDx=0;exitDy=0;exitPerimeter=0;entryX=0.075;entryY=0.625;entryDx=0;entryDy=0;entryPerimeter=0;" parent="1" source="311" target="399" edge="1">
                    <mxGeometry width="50" height="50" relative="1" as="geometry">
                        <mxPoint x="1830" y="320" as="sourcePoint"/>
                        <mxPoint x="1880" y="320" as="targetPoint"/>
                    </mxGeometry>
                </mxCell>
                <mxCell id="403" value="" style="endArrow=classic;html=1;fontSize=10;exitX=0.961;exitY=0.708;exitDx=0;exitDy=0;exitPerimeter=0;entryX=-0.008;entryY=0.617;entryDx=0;entryDy=0;entryPerimeter=0;" parent="1" source="358" target="365" edge="1">
                    <mxGeometry width="50" height="50" relative="1" as="geometry">
                        <mxPoint x="1740" y="870" as="sourcePoint"/>
                        <mxPoint x="1790" y="870" as="targetPoint"/>
                        <Array as="points">
                            <mxPoint x="1790" y="791"/>
                            <mxPoint x="1790" y="860"/>
                        </Array>
                    </mxGeometry>
                </mxCell>
                <mxCell id="404" value="ext" style="text;html=1;align=center;verticalAlign=middle;resizable=0;points=[];autosize=1;strokeColor=none;fillColor=none;fontSize=10;" parent="1" vertex="1">
                    <mxGeometry x="2030" y="776" width="30" height="20" as="geometry"/>
                </mxCell>
                <mxCell id="405" value="" style="endArrow=classic;html=1;fontSize=10;exitX=0.929;exitY=0.919;exitDx=0;exitDy=0;exitPerimeter=0;entryX=-0.122;entryY=0.542;entryDx=0;entryDy=0;entryPerimeter=0;" parent="1" source="311" target="404" edge="1">
                    <mxGeometry width="50" height="50" relative="1" as="geometry">
                        <mxPoint x="1810" y="790" as="sourcePoint"/>
                        <mxPoint x="1860" y="790" as="targetPoint"/>
                    </mxGeometry>
                </mxCell>
                <mxCell id="407" value="WR" style="text;html=1;align=center;verticalAlign=middle;resizable=0;points=[];autosize=1;strokeColor=none;fillColor=none;fontSize=10;" parent="1" vertex="1">
                    <mxGeometry x="2030" y="698.5" width="30" height="20" as="geometry"/>
                </mxCell>
                <mxCell id="408" value="" style="endArrow=classic;html=1;fontSize=10;exitX=1.017;exitY=0.583;exitDx=0;exitDy=0;exitPerimeter=0;entryX=-0.094;entryY=0.667;entryDx=0;entryDy=0;entryPerimeter=0;" parent="1" source="353" target="407" edge="1">
                    <mxGeometry width="50" height="50" relative="1" as="geometry">
                        <mxPoint x="1840" y="710" as="sourcePoint"/>
                        <mxPoint x="1890" y="710" as="targetPoint"/>
                    </mxGeometry>
                </mxCell>
                <mxCell id="410" value="" style="endArrow=none;html=1;fontSize=10;exitX=1.396;exitY=0;exitDx=0;exitDy=0;exitPerimeter=0;" parent="1" edge="1" source="366">
                    <mxGeometry width="50" height="50" relative="1" as="geometry">
                        <mxPoint x="1920" y="390" as="sourcePoint"/>
                        <mxPoint x="1920" y="90" as="targetPoint"/>
                    </mxGeometry>
                </mxCell>
                <mxCell id="411" value="" style="endArrow=none;html=1;fontSize=10;" parent="1" edge="1">
                    <mxGeometry width="50" height="50" relative="1" as="geometry">
                        <mxPoint x="1040" y="90" as="sourcePoint"/>
                        <mxPoint x="2370" y="90" as="targetPoint"/>
                    </mxGeometry>
                </mxCell>
                <mxCell id="412" value="" style="endArrow=classic;html=1;fontSize=10;exitX=0.3;exitY=0.85;exitDx=0;exitDy=0;exitPerimeter=0;" parent="1" source="367" target="452" edge="1">
                    <mxGeometry width="50" height="50" relative="1" as="geometry">
                        <mxPoint x="1849" y="970" as="sourcePoint"/>
                        <mxPoint x="1020" y="570" as="targetPoint"/>
                        <Array as="points">
                            <mxPoint x="1849" y="990"/>
                            <mxPoint x="1000" y="990"/>
                            <mxPoint x="1000" y="535"/>
                        </Array>
                    </mxGeometry>
                </mxCell>
                <mxCell id="413" value="" style="endArrow=classic;html=1;fontSize=10;exitX=1.087;exitY=0.541;exitDx=0;exitDy=0;exitPerimeter=0;entryX=0.75;entryY=0;entryDx=0;entryDy=0;" parent="1" source="399" target="319" edge="1">
                    <mxGeometry width="50" height="50" relative="1" as="geometry">
                        <mxPoint x="2120" y="319" as="sourcePoint"/>
                        <mxPoint x="2170" y="319" as="targetPoint"/>
                        <Array as="points">
                            <mxPoint x="2228" y="317"/>
                        </Array>
                    </mxGeometry>
                </mxCell>
                <mxCell id="414" value="pc4" style="text;html=1;align=center;verticalAlign=middle;resizable=0;points=[];autosize=1;strokeColor=none;fillColor=none;fontSize=10;" parent="1" vertex="1">
                    <mxGeometry x="2030" y="480" width="30" height="20" as="geometry"/>
                </mxCell>
                <mxCell id="415" value="" style="endArrow=classic;html=1;fontSize=10;" parent="1" source="368" target="414" edge="1">
                    <mxGeometry width="50" height="50" relative="1" as="geometry">
                        <mxPoint x="1970" y="860" as="sourcePoint"/>
                        <mxPoint x="2010" y="510" as="targetPoint"/>
                        <Array as="points">
                            <mxPoint x="1970" y="858"/>
                            <mxPoint x="1970" y="490"/>
                        </Array>
                    </mxGeometry>
                </mxCell>
                <mxCell id="416" value="" style="rounded=0;whiteSpace=wrap;html=1;" parent="1" vertex="1">
                    <mxGeometry x="2295" y="605" width="20" height="62.5" as="geometry"/>
                </mxCell>
                <mxCell id="417" value="&lt;font style=&quot;font-size: 8px&quot;&gt;0&lt;/font&gt;" style="text;html=1;align=center;verticalAlign=middle;resizable=0;points=[];autosize=1;strokeColor=none;fillColor=none;" parent="1" vertex="1">
                    <mxGeometry x="2290" y="597.5" width="20" height="20" as="geometry"/>
                </mxCell>
                <mxCell id="418" value="1" style="text;html=1;align=center;verticalAlign=middle;resizable=0;points=[];autosize=1;strokeColor=none;fillColor=none;fontSize=8;" parent="1" vertex="1">
                    <mxGeometry x="2290" y="612.5" width="20" height="20" as="geometry"/>
                </mxCell>
                <mxCell id="419" value="2" style="text;html=1;align=center;verticalAlign=middle;resizable=0;points=[];autosize=1;strokeColor=none;fillColor=none;fontSize=8;" parent="1" vertex="1">
                    <mxGeometry x="2290" y="630" width="20" height="20" as="geometry"/>
                </mxCell>
                <mxCell id="420" value="3" style="text;html=1;align=center;verticalAlign=middle;resizable=0;points=[];autosize=1;strokeColor=none;fillColor=none;fontSize=8;" parent="1" vertex="1">
                    <mxGeometry x="2290" y="647.5" width="20" height="20" as="geometry"/>
                </mxCell>
                <mxCell id="421" value="" style="endArrow=classic;html=1;fontSize=10;entryX=-0.029;entryY=0.647;entryDx=0;entryDy=0;entryPerimeter=0;" parent="1" source="419" target="325" edge="1">
                    <mxGeometry width="50" height="50" relative="1" as="geometry">
                        <mxPoint x="2310" y="637" as="sourcePoint"/>
                        <mxPoint x="2350" y="710" as="targetPoint"/>
                    </mxGeometry>
                </mxCell>
                <mxCell id="422" value="" style="endArrow=classic;html=1;fontSize=10;exitX=0.964;exitY=0.285;exitDx=0;exitDy=0;exitPerimeter=0;entryX=0.679;entryY=-0.383;entryDx=0;entryDy=0;entryPerimeter=0;" parent="1" source="318" target="418" edge="1">
                    <mxGeometry width="50" height="50" relative="1" as="geometry">
                        <mxPoint x="2150" y="440" as="sourcePoint"/>
                        <mxPoint x="2300" y="500" as="targetPoint"/>
                        <Array as="points">
                            <mxPoint x="2300" y="441"/>
                        </Array>
                    </mxGeometry>
                </mxCell>
                <mxCell id="423" value="wD" style="text;html=1;align=center;verticalAlign=middle;resizable=0;points=[];autosize=1;strokeColor=none;fillColor=none;fontSize=10;" parent="1" vertex="1">
                    <mxGeometry x="2355" y="629.5" width="30" height="20" as="geometry"/>
                </mxCell>
                <mxCell id="424" value="" style="endArrow=classic;html=1;fontSize=10;entryX=0.205;entryY=-0.172;entryDx=0;entryDy=0;entryPerimeter=0;startArrow=none;" parent="1" target="418" edge="1">
                    <mxGeometry width="50" height="50" relative="1" as="geometry">
                        <mxPoint x="2050" y="609" as="sourcePoint"/>
                        <mxPoint x="2210" y="590" as="targetPoint"/>
                        <Array as="points"/>
                    </mxGeometry>
                </mxCell>
                <mxCell id="425" value="" style="endArrow=classic;html=1;fontSize=10;exitX=1.005;exitY=0.488;exitDx=0;exitDy=0;exitPerimeter=0;entryX=0.205;entryY=0.459;entryDx=0;entryDy=0;entryPerimeter=0;" parent="1" source="323" target="418" edge="1">
                    <mxGeometry width="50" height="50" relative="1" as="geometry">
                        <mxPoint x="2290" y="890" as="sourcePoint"/>
                        <mxPoint x="2300" y="770" as="targetPoint"/>
                        <Array as="points">
                            <mxPoint x="2270" y="890"/>
                            <mxPoint x="2270" y="622"/>
                        </Array>
                    </mxGeometry>
                </mxCell>
                <mxCell id="426" value="" style="endArrow=classic;html=1;fontSize=10;exitX=1.04;exitY=0.42;exitDx=0;exitDy=0;exitPerimeter=0;entryX=0.1;entryY=0.532;entryDx=0;entryDy=0;entryPerimeter=0;" parent="1" source="414" target="419" edge="1">
                    <mxGeometry width="50" height="50" relative="1" as="geometry">
                        <mxPoint x="2100" y="500" as="sourcePoint"/>
                        <mxPoint x="2150" y="500" as="targetPoint"/>
                        <Array as="points">
                            <mxPoint x="2130" y="488"/>
                            <mxPoint x="2130" y="641"/>
                        </Array>
                    </mxGeometry>
                </mxCell>
                <mxCell id="427" value="" style="endArrow=classic;html=1;fontSize=10;exitX=1.043;exitY=0.526;exitDx=0;exitDy=0;exitPerimeter=0;entryX=0.5;entryY=0.625;entryDx=0;entryDy=0;entryPerimeter=0;" parent="1" source="404" target="420" edge="1">
                    <mxGeometry width="50" height="50" relative="1" as="geometry">
                        <mxPoint x="2140" y="760" as="sourcePoint"/>
                        <mxPoint x="2190" y="760" as="targetPoint"/>
                        <Array as="points">
                            <mxPoint x="2250" y="787"/>
                            <mxPoint x="2250" y="660"/>
                        </Array>
                    </mxGeometry>
                </mxCell>
                <mxCell id="428" value="" style="endArrow=classic;html=1;fontSize=10;exitX=0.951;exitY=0.212;exitDx=0;exitDy=0;exitPerimeter=0;entryX=0.109;entryY=0.224;entryDx=0;entryDy=0;entryPerimeter=0;" parent="1" source="318" target="325" edge="1">
                    <mxGeometry width="50" height="50" relative="1" as="geometry">
                        <mxPoint x="2120" y="400" as="sourcePoint"/>
                        <mxPoint x="2340" y="400" as="targetPoint"/>
                    </mxGeometry>
                </mxCell>
                <mxCell id="429" value="RFWr" style="edgeLabel;html=1;align=center;verticalAlign=middle;resizable=0;points=[];" parent="1" vertex="1" connectable="0">
                    <mxGeometry x="2370" y="400.5033333333334" as="geometry"/>
                </mxCell>
                <mxCell id="431" value="WR" style="text;html=1;align=center;verticalAlign=middle;resizable=0;points=[];autosize=1;strokeColor=none;fillColor=none;fontSize=10;" parent="1" vertex="1">
                    <mxGeometry x="2355" y="699.5" width="30" height="20" as="geometry"/>
                </mxCell>
                <mxCell id="432" value="" style="endArrow=classic;html=1;fontSize=10;exitX=1.038;exitY=0.766;exitDx=0;exitDy=0;exitPerimeter=0;" parent="1" source="318" target="431" edge="1">
                    <mxGeometry width="50" height="50" relative="1" as="geometry">
                        <mxPoint x="2150" y="710" as="sourcePoint"/>
                        <mxPoint x="2330" y="710" as="targetPoint"/>
                    </mxGeometry>
                </mxCell>
                <mxCell id="438" value="" style="group" parent="1" vertex="1" connectable="0">
                    <mxGeometry x="1335.0600000000002" y="944.25" width="9.86999999999989" height="15.499999999999886" as="geometry"/>
                </mxCell>
                <mxCell id="439" value="" style="triangle;whiteSpace=wrap;html=1;fontSize=10;rotation=-90;" parent="438" vertex="1">
                    <mxGeometry x="-0.22000000000002728" y="5.409999999999968" width="10.31" height="9.87" as="geometry"/>
                </mxCell>
                <mxCell id="441" value="" style="triangle;whiteSpace=wrap;html=1;fontSize=10;rotation=-90;" parent="1" vertex="1">
                    <mxGeometry x="1754.8400000000001" y="825.13" width="10.31" height="9.87" as="geometry"/>
                </mxCell>
                <mxCell id="442" value="" style="triangle;whiteSpace=wrap;html=1;fontSize=10;rotation=-90;" parent="1" vertex="1">
                    <mxGeometry x="2039.8400000000001" y="831.13" width="10.31" height="9.87" as="geometry"/>
                </mxCell>
                <mxCell id="443" value="" style="triangle;whiteSpace=wrap;html=1;fontSize=10;rotation=-90;" parent="1" vertex="1">
                    <mxGeometry x="2364.84" y="825.13" width="10.31" height="9.87" as="geometry"/>
                </mxCell>
                <mxCell id="444" value="" style="endArrow=classic;html=1;fontSize=10;exitX=0.85;exitY=0.45;exitDx=0;exitDy=0;exitPerimeter=0;" parent="1" source="431" target="280" edge="1">
                    <mxGeometry width="50" height="50" relative="1" as="geometry">
                        <mxPoint x="2420" y="710" as="sourcePoint"/>
                        <mxPoint x="1500" y="630" as="targetPoint"/>
                        <Array as="points">
                            <mxPoint x="2420" y="709"/>
                            <mxPoint x="2420" y="1030"/>
                            <mxPoint x="1490" y="1020"/>
                            <mxPoint x="1490" y="600"/>
                        </Array>
                    </mxGeometry>
                </mxCell>
                <mxCell id="445" value="" style="endArrow=classic;html=1;fontSize=10;exitX=1.1;exitY=0.45;exitDx=0;exitDy=0;exitPerimeter=0;" parent="1" source="423" target="281" edge="1">
                    <mxGeometry width="50" height="50" relative="1" as="geometry">
                        <mxPoint x="2420" y="640" as="sourcePoint"/>
                        <mxPoint x="1520" y="650" as="targetPoint"/>
                        <Array as="points">
                            <mxPoint x="2450" y="639"/>
                            <mxPoint x="2450" y="1050"/>
                            <mxPoint x="1529" y="1050"/>
                        </Array>
                    </mxGeometry>
                </mxCell>
                <mxCell id="446" value="" style="endArrow=classic;html=1;fontSize=10;exitX=1.044;exitY=0.227;exitDx=0;exitDy=0;exitPerimeter=0;entryX=0;entryY=0.5;entryDx=0;entryDy=0;" parent="1" source="325" target="300" edge="1">
                    <mxGeometry width="50" height="50" relative="1" as="geometry">
                        <mxPoint x="2430" y="400" as="sourcePoint"/>
                        <mxPoint x="1590" y="920" as="targetPoint"/>
                        <Array as="points">
                            <mxPoint x="2480" y="402"/>
                            <mxPoint x="2480" y="1080"/>
                            <mxPoint x="1554" y="1080"/>
                        </Array>
                    </mxGeometry>
                </mxCell>
                <mxCell id="448" value="14:12" style="text;html=1;align=center;verticalAlign=middle;resizable=0;points=[];autosize=1;strokeColor=none;fillColor=none;" parent="1" vertex="1">
                    <mxGeometry x="1429" y="266" width="50" height="20" as="geometry"/>
                </mxCell>
                <mxCell id="449" value="31:25" style="text;html=1;align=center;verticalAlign=middle;resizable=0;points=[];autosize=1;strokeColor=none;fillColor=none;" parent="1" vertex="1">
                    <mxGeometry x="1429" y="306" width="50" height="20" as="geometry"/>
                </mxCell>
                <mxCell id="453" style="edgeStyle=none;html=1;exitX=1;exitY=0.75;exitDx=0;exitDy=0;entryX=0.054;entryY=0.614;entryDx=0;entryDy=0;entryPerimeter=0;fontSize=10;" parent="1" source="450" target="239" edge="1">
                    <mxGeometry relative="1" as="geometry"/>
                </mxCell>
                <mxCell id="450" value="" style="rounded=0;whiteSpace=wrap;html=1;" parent="1" vertex="1">
                    <mxGeometry x="1030" y="475" width="30" height="70" as="geometry"/>
                </mxCell>
                <mxCell id="451" value="&lt;font style=&quot;font-size: 12px&quot;&gt;0&lt;/font&gt;" style="text;html=1;align=center;verticalAlign=middle;resizable=0;points=[];autosize=1;strokeColor=none;fillColor=none;fontSize=8;" parent="1" vertex="1">
                    <mxGeometry x="1030" y="475" width="20" height="20" as="geometry"/>
                </mxCell>
                <mxCell id="452" value="1" style="text;html=1;align=center;verticalAlign=middle;resizable=0;points=[];autosize=1;strokeColor=none;fillColor=none;fontSize=12;" parent="1" vertex="1">
                    <mxGeometry x="1030" y="525" width="20" height="20" as="geometry"/>
                </mxCell>
                <mxCell id="456" style="edgeStyle=none;html=1;exitX=1;exitY=0.5;exitDx=0;exitDy=0;fontSize=14;" parent="1" source="454" target="451" edge="1">
                    <mxGeometry relative="1" as="geometry"/>
                </mxCell>
                <mxCell id="454" value="&lt;font style=&quot;font-size: 14px&quot;&gt;+&lt;/font&gt;" style="rounded=0;whiteSpace=wrap;html=1;fontSize=10;" parent="1" vertex="1">
                    <mxGeometry x="990" y="469.6" width="20" height="30" as="geometry"/>
                </mxCell>
                <mxCell id="457" value="" style="endArrow=classic;html=1;fontSize=10;entryX=0;entryY=0.25;entryDx=0;entryDy=0;" parent="1" target="454" edge="1">
                    <mxGeometry width="50" height="50" relative="1" as="geometry">
                        <mxPoint x="1160" y="420" as="sourcePoint"/>
                        <mxPoint x="980" y="460" as="targetPoint"/>
                        <Array as="points">
                            <mxPoint x="1160" y="390"/>
                            <mxPoint x="960" y="390"/>
                            <mxPoint x="960" y="477"/>
                        </Array>
                    </mxGeometry>
                </mxCell>
                <mxCell id="458" value="" style="endArrow=classic;html=1;fontSize=10;entryX=0;entryY=0.75;entryDx=0;entryDy=0;" parent="1" target="454" edge="1">
                    <mxGeometry width="50" height="50" relative="1" as="geometry">
                        <mxPoint x="960" y="492" as="sourcePoint"/>
                        <mxPoint x="1000" y="520" as="targetPoint"/>
                    </mxGeometry>
                </mxCell>
                <mxCell id="459" value="&lt;font style=&quot;font-size: 10px&quot;&gt;4&lt;/font&gt;" style="text;html=1;align=center;verticalAlign=middle;resizable=0;points=[];autosize=1;strokeColor=none;fillColor=none;fontSize=14;" parent="1" vertex="1">
                    <mxGeometry x="950" y="490" width="20" height="20" as="geometry"/>
                </mxCell>
                <mxCell id="460" value="" style="endArrow=classic;html=1;fontSize=10;entryX=0.476;entryY=0.071;entryDx=0;entryDy=0;entryPerimeter=0;" parent="1" target="451" edge="1">
                    <mxGeometry width="50" height="50" relative="1" as="geometry">
                        <mxPoint x="1040" y="90" as="sourcePoint"/>
                        <mxPoint x="1000" y="220" as="targetPoint"/>
                    </mxGeometry>
                </mxCell>
                <mxCell id="380" value="C" style="text;html=1;align=center;verticalAlign=middle;resizable=0;points=[];autosize=1;strokeColor=none;fillColor=none;fontSize=10;" parent="1" vertex="1">
                    <mxGeometry x="2030" y="594.5" width="20" height="20" as="geometry"/>
                </mxCell>
                <mxCell id="463" value="pc" style="text;html=1;align=center;verticalAlign=middle;resizable=0;points=[];autosize=1;strokeColor=none;fillColor=none;fontSize=10;" parent="1" vertex="1">
                    <mxGeometry x="1150" y="507" width="30" height="20" as="geometry"/>
                </mxCell>
                <mxCell id="464" value="branch" style="text;html=1;align=center;verticalAlign=middle;resizable=0;points=[];autosize=1;strokeColor=none;fillColor=none;" parent="1" vertex="1">
                    <mxGeometry x="1893.12" y="660" width="50" height="20" as="geometry"/>
                </mxCell>
                <mxCell id="465" value="" style="endArrow=classic;html=1;fontSize=10;exitX=0.402;exitY=0.137;exitDx=0;exitDy=0;exitPerimeter=0;entryX=0.641;entryY=0.001;entryDx=0;entryDy=0;entryPerimeter=0;" parent="1" source="464" target="363" edge="1">
                    <mxGeometry width="50" height="50" relative="1" as="geometry">
                        <mxPoint x="1910" y="730" as="sourcePoint"/>
                        <mxPoint x="1910" y="780" as="targetPoint"/>
                    </mxGeometry>
                </mxCell>
                <mxCell id="466" value="" style="endArrow=classic;html=1;fontSize=10;entryX=0.065;entryY=0.4;entryDx=0;entryDy=0;entryPerimeter=0;" parent="1" target="467" edge="1">
                    <mxGeometry width="50" height="50" relative="1" as="geometry">
                        <mxPoint x="1790" y="470" as="sourcePoint"/>
                        <mxPoint x="2010" y="470" as="targetPoint"/>
                    </mxGeometry>
                </mxCell>
                <mxCell id="467" value="PC" style="text;html=1;align=center;verticalAlign=middle;resizable=0;points=[];autosize=1;strokeColor=none;fillColor=none;fontSize=10;" parent="1" vertex="1">
                    <mxGeometry x="2030" y="460" width="30" height="20" as="geometry"/>
                </mxCell>
                <mxCell id="469" value="" style="endArrow=classic;html=1;fontSize=10;exitX=0.872;exitY=0.453;exitDx=0;exitDy=0;exitPerimeter=0;entryX=0.004;entryY=0.505;entryDx=0;entryDy=0;entryPerimeter=0;" parent="1" source="467" target="470" edge="1">
                    <mxGeometry width="50" height="50" relative="1" as="geometry">
                        <mxPoint x="2130" y="470" as="sourcePoint"/>
                        <mxPoint x="2320" y="470" as="targetPoint"/>
                    </mxGeometry>
                </mxCell>
                <mxCell id="470" value="PC" style="text;html=1;align=center;verticalAlign=middle;resizable=0;points=[];autosize=1;strokeColor=none;fillColor=none;fontSize=10;" parent="1" vertex="1">
                    <mxGeometry x="2355" y="460" width="30" height="20" as="geometry"/>
                </mxCell>
                <mxCell id="471" value="" style="endArrow=classic;html=1;fontSize=10;" parent="1" source="472" target="475" edge="1">
                    <mxGeometry width="50" height="50" relative="1" as="geometry">
                        <mxPoint x="1130" y="340" as="sourcePoint"/>
                        <mxPoint x="1180" y="340" as="targetPoint"/>
                        <Array as="points">
                            <mxPoint x="1110" y="160"/>
                        </Array>
                    </mxGeometry>
                </mxCell>
                <mxCell id="472" value="running" style="text;html=1;align=center;verticalAlign=middle;resizable=0;points=[];autosize=1;strokeColor=none;fillColor=none;fontSize=10;" parent="1" vertex="1">
                    <mxGeometry x="1090" y="455" width="50" height="20" as="geometry"/>
                </mxCell>
                <mxCell id="475" value="running" style="text;html=1;align=center;verticalAlign=middle;resizable=0;points=[];autosize=1;strokeColor=none;fillColor=none;fontSize=10;" parent="1" vertex="1">
                    <mxGeometry x="1315" y="150" width="50" height="20" as="geometry"/>
                </mxCell>
                <mxCell id="476" value="" style="rounded=0;whiteSpace=wrap;html=1;fontSize=10;" parent="1" vertex="1">
                    <mxGeometry x="1740.15" y="140" width="39.85" height="135" as="geometry"/>
                </mxCell>
                <mxCell id="477" value="" style="endArrow=classic;html=1;fontSize=10;entryX=0.022;entryY=0.558;entryDx=0;entryDy=0;entryPerimeter=0;" parent="1" target="478" edge="1">
                    <mxGeometry width="50" height="50" relative="1" as="geometry">
                        <mxPoint x="1360" y="160" as="sourcePoint"/>
                        <mxPoint x="1720" y="160" as="targetPoint"/>
                    </mxGeometry>
                </mxCell>
                <mxCell id="478" value="running" style="text;html=1;align=center;verticalAlign=middle;resizable=0;points=[];autosize=1;strokeColor=none;fillColor=none;fontSize=10;" parent="1" vertex="1">
                    <mxGeometry x="1735.08" y="150" width="50" height="20" as="geometry"/>
                </mxCell>
                <mxCell id="479" value="" style="rounded=0;whiteSpace=wrap;html=1;fontSize=10;" parent="1" vertex="1">
                    <mxGeometry x="2025" y="130" width="39.85" height="151" as="geometry"/>
                </mxCell>
                <mxCell id="480" value="running" style="text;html=1;align=center;verticalAlign=middle;resizable=0;points=[];autosize=1;strokeColor=none;fillColor=none;fontSize=10;" parent="1" vertex="1">
                    <mxGeometry x="2019.9199999999998" y="150" width="50" height="20" as="geometry"/>
                </mxCell>
                <mxCell id="481" value="" style="endArrow=classic;html=1;fontSize=10;exitX=1.038;exitY=0.475;exitDx=0;exitDy=0;exitPerimeter=0;" parent="1" source="478" target="480" edge="1">
                    <mxGeometry width="50" height="50" relative="1" as="geometry">
                        <mxPoint x="1860" y="160" as="sourcePoint"/>
                        <mxPoint x="1910" y="160" as="targetPoint"/>
                    </mxGeometry>
                </mxCell>
                <mxCell id="484" value="" style="rounded=0;whiteSpace=wrap;html=1;fontSize=10;" parent="1" vertex="1">
                    <mxGeometry x="2350.08" y="124.5" width="39.85" height="151" as="geometry"/>
                </mxCell>
                <mxCell id="485" value="running" style="text;html=1;align=center;verticalAlign=middle;resizable=0;points=[];autosize=1;strokeColor=none;fillColor=none;fontSize=10;" parent="1" vertex="1">
                    <mxGeometry x="2345" y="144.5" width="50" height="20" as="geometry"/>
                </mxCell>
                <mxCell id="486" value="" style="endArrow=classic;html=1;fontSize=10;exitX=0.991;exitY=0.19;exitDx=0;exitDy=0;exitPerimeter=0;entryX=0.09;entryY=0.667;entryDx=0;entryDy=0;entryPerimeter=0;" parent="1" source="479" target="485" edge="1">
                    <mxGeometry width="50" height="50" relative="1" as="geometry">
                        <mxPoint x="2100" y="160" as="sourcePoint"/>
                        <mxPoint x="2150" y="160" as="targetPoint"/>
                    </mxGeometry>
                </mxCell>
                <mxCell id="492" value="&#10;&#10;&lt;span style=&quot;color: rgb(51, 51, 51); font-family: arial, &amp;quot;microsoft yahei&amp;quot;, &amp;quot;\\5fae软雅黑&amp;quot;, &amp;quot;\\5b8b体&amp;quot;, &amp;quot;malgun gothic&amp;quot;, meiryo, sans-serif; font-size: 14px; font-style: normal; font-variant: normal; font-weight: 200; letter-spacing: normal; line-height: 21px; text-align: left; text-indent: 0px; text-transform: none; word-spacing: 0px; background-color: rgb(255, 255, 255); display: inline; float: none;&quot;&gt;forwarding&lt;/span&gt;&#10;&#10;" style="rounded=0;whiteSpace=wrap;html=1;fontSize=10;" parent="1" vertex="1">
                    <mxGeometry x="1458.06" y="1450" width="205" height="200" as="geometry"/>
                </mxCell>
                <mxCell id="507" value="" style="edgeStyle=none;html=1;fontSize=10;" parent="1" source="493" edge="1">
                    <mxGeometry relative="1" as="geometry">
                        <mxPoint x="1719.94" y="1493.5" as="targetPoint"/>
                    </mxGeometry>
                </mxCell>
                <mxCell id="493" value="rD1" style="text;html=1;align=center;verticalAlign=middle;resizable=0;points=[];autosize=1;strokeColor=none;fillColor=none;" parent="1" vertex="1">
                    <mxGeometry x="1638.06" y="1483.5" width="30" height="20" as="geometry"/>
                </mxCell>
                <mxCell id="503" value="" style="edgeStyle=none;html=1;fontSize=10;" parent="1" source="494" edge="1">
                    <mxGeometry relative="1" as="geometry">
                        <mxPoint x="1719.94" y="1613.5" as="targetPoint"/>
                    </mxGeometry>
                </mxCell>
                <mxCell id="494" value="rD2" style="text;html=1;align=center;verticalAlign=middle;resizable=0;points=[];autosize=1;strokeColor=none;fillColor=none;" parent="1" vertex="1">
                    <mxGeometry x="1638.06" y="1603.5" width="30" height="20" as="geometry"/>
                </mxCell>
                <mxCell id="498" value="" style="endArrow=classic;html=1;fontSize=10;entryX=0.005;entryY=0.159;entryDx=0;entryDy=0;entryPerimeter=0;" parent="1" target="492" edge="1">
                    <mxGeometry width="50" height="50" relative="1" as="geometry">
                        <mxPoint x="1379.94" y="1480" as="sourcePoint"/>
                        <mxPoint x="1429.94" y="1480" as="targetPoint"/>
                    </mxGeometry>
                </mxCell>
                <mxCell id="499" value="rD1" style="text;html=1;align=center;verticalAlign=middle;resizable=0;points=[];autosize=1;strokeColor=none;fillColor=none;fontSize=10;" parent="1" vertex="1">
                    <mxGeometry x="1349.94" y="1463.5" width="30" height="20" as="geometry"/>
                </mxCell>
                <mxCell id="508" value="" style="endArrow=classic;html=1;fontSize=10;entryX=0.005;entryY=0.159;entryDx=0;entryDy=0;entryPerimeter=0;" parent="1" edge="1">
                    <mxGeometry width="50" height="50" relative="1" as="geometry">
                        <mxPoint x="1379.94" y="1520" as="sourcePoint"/>
                        <mxPoint x="1459.085" y="1521.7999999999997" as="targetPoint"/>
                    </mxGeometry>
                </mxCell>
                <mxCell id="509" value="rD2" style="text;html=1;align=center;verticalAlign=middle;resizable=0;points=[];autosize=1;strokeColor=none;fillColor=none;fontSize=10;" parent="1" vertex="1">
                    <mxGeometry x="1349.94" y="1503.5" width="30" height="20" as="geometry"/>
                </mxCell>
                <mxCell id="517" value="" style="edgeStyle=none;html=1;fontSize=10;" parent="1" target="530" edge="1">
                    <mxGeometry relative="1" as="geometry">
                        <mxPoint x="1492.94" y="1700" as="sourcePoint"/>
                    </mxGeometry>
                </mxCell>
                <mxCell id="519" value="" style="edgeStyle=none;html=1;fontSize=10;" parent="1" target="531" edge="1">
                    <mxGeometry relative="1" as="geometry">
                        <mxPoint x="1542.94" y="1700" as="sourcePoint"/>
                    </mxGeometry>
                </mxCell>
                <mxCell id="520" value="rR2" style="text;html=1;align=center;verticalAlign=middle;resizable=0;points=[];autosize=1;strokeColor=none;fillColor=none;" parent="1" vertex="1">
                    <mxGeometry x="1459.94" y="1560" width="30" height="20" as="geometry"/>
                </mxCell>
                <mxCell id="521" value="rR1" style="text;html=1;align=center;verticalAlign=middle;resizable=0;points=[];autosize=1;strokeColor=none;fillColor=none;" parent="1" vertex="1">
                    <mxGeometry x="1459.94" y="1540" width="30" height="20" as="geometry"/>
                </mxCell>
                <mxCell id="522" value="rD2" style="text;html=1;align=center;verticalAlign=middle;resizable=0;points=[];autosize=1;strokeColor=none;fillColor=none;fontSize=10;" parent="1" vertex="1">
                    <mxGeometry x="1459.94" y="1513.5" width="30" height="20" as="geometry"/>
                </mxCell>
                <mxCell id="524" value="rD1" style="text;html=1;align=center;verticalAlign=middle;resizable=0;points=[];autosize=1;strokeColor=none;fillColor=none;fontSize=10;" parent="1" vertex="1">
                    <mxGeometry x="1459.94" y="1473.5" width="30" height="20" as="geometry"/>
                </mxCell>
                <mxCell id="525" value="" style="endArrow=classic;html=1;" parent="1" target="521" edge="1">
                    <mxGeometry width="50" height="50" relative="1" as="geometry">
                        <mxPoint x="1378.06" y="1553.5" as="sourcePoint"/>
                        <mxPoint x="1458.06" y="1553.96" as="targetPoint"/>
                    </mxGeometry>
                </mxCell>
                <mxCell id="526" value="ID_inst[19:15]" style="text;html=1;align=center;verticalAlign=middle;resizable=0;points=[];autosize=1;strokeColor=none;fillColor=none;" parent="1" vertex="1">
                    <mxGeometry x="1333.06" y="1533.5" width="90" height="20" as="geometry"/>
                </mxCell>
                <mxCell id="527" value="" style="endArrow=classic;html=1;" parent="1" target="520" edge="1">
                    <mxGeometry width="50" height="50" relative="1" as="geometry">
                        <mxPoint x="1378.06" y="1578.5" as="sourcePoint"/>
                        <mxPoint x="1458.06" y="1578.96" as="targetPoint"/>
                    </mxGeometry>
                </mxCell>
                <mxCell id="528" value="ID_inst[24:20]" style="text;html=1;align=center;verticalAlign=middle;resizable=0;points=[];autosize=1;strokeColor=none;fillColor=none;" parent="1" vertex="1">
                    <mxGeometry x="1333.06" y="1558.5" width="90" height="20" as="geometry"/>
                </mxCell>
                <mxCell id="530" value="SAdr" style="text;html=1;align=center;verticalAlign=middle;resizable=0;points=[];autosize=1;strokeColor=none;fillColor=none;fontSize=10;" parent="1" vertex="1">
                    <mxGeometry x="1473.06" y="1630" width="40" height="20" as="geometry"/>
                </mxCell>
                <mxCell id="531" value="SData" style="text;html=1;align=center;verticalAlign=middle;resizable=0;points=[];autosize=1;strokeColor=none;fillColor=none;fontSize=10;" parent="1" vertex="1">
                    <mxGeometry x="1523.06" y="1630" width="40" height="20" as="geometry"/>
                </mxCell>
                <mxCell id="532" value="wR" style="text;html=1;align=center;verticalAlign=middle;resizable=0;points=[];autosize=1;strokeColor=none;fillColor=none;fontSize=10;" parent="1" vertex="1">
                    <mxGeometry x="1572.94" y="1630" width="30" height="20" as="geometry"/>
                </mxCell>
                <mxCell id="533" value="wD" style="text;html=1;align=center;verticalAlign=middle;resizable=0;points=[];autosize=1;strokeColor=none;fillColor=none;fontSize=10;" parent="1" vertex="1">
                    <mxGeometry x="1609.8600000000001" y="1630" width="30" height="20" as="geometry"/>
                </mxCell>
                <mxCell id="535" value="" style="edgeStyle=none;html=1;fontSize=10;" parent="1" source="534" target="532" edge="1">
                    <mxGeometry relative="1" as="geometry"/>
                </mxCell>
                <mxCell id="534" value="WB_wR" style="text;html=1;align=center;verticalAlign=middle;resizable=0;points=[];autosize=1;strokeColor=none;fillColor=none;fontSize=10;" parent="1" vertex="1">
                    <mxGeometry x="1559.8600000000001" y="1700" width="50" height="20" as="geometry"/>
                </mxCell>
                <mxCell id="537" value="" style="edgeStyle=none;html=1;fontSize=10;" parent="1" source="536" target="533" edge="1">
                    <mxGeometry relative="1" as="geometry"/>
                </mxCell>
                <mxCell id="536" value="WB_wD" style="text;html=1;align=center;verticalAlign=middle;resizable=0;points=[];autosize=1;strokeColor=none;fillColor=none;fontSize=10;" parent="1" vertex="1">
                    <mxGeometry x="1614.94" y="1700" width="50" height="20" as="geometry"/>
                </mxCell>
                <mxCell id="538" value="" style="rounded=0;whiteSpace=wrap;html=1;fontSize=10;" parent="1" vertex="1">
                    <mxGeometry x="1719.94" y="1450" width="25" height="60" as="geometry"/>
                </mxCell>
                <mxCell id="539" value="" style="rounded=0;whiteSpace=wrap;html=1;fontSize=10;" parent="1" vertex="1">
                    <mxGeometry x="1719.94" y="1590" width="25" height="60" as="geometry"/>
                </mxCell>
                <mxCell id="540" value="MEM_C" style="text;html=1;align=center;verticalAlign=middle;resizable=0;points=[];autosize=1;strokeColor=none;fillColor=none;fontSize=10;" parent="1" vertex="1">
                    <mxGeometry x="1454.94" y="1710" width="50" height="20" as="geometry"/>
                </mxCell>
                <mxCell id="541" value="MEM_rD2" style="text;html=1;align=center;verticalAlign=middle;resizable=0;points=[];autosize=1;strokeColor=none;fillColor=none;fontSize=10;" parent="1" vertex="1">
                    <mxGeometry x="1499.94" y="1710" width="60" height="20" as="geometry"/>
                </mxCell>
                <mxCell id="543" value="" style="edgeStyle=none;html=1;fontSize=10;entryX=0;entryY=1;entryDx=0;entryDy=0;" parent="1" source="542" target="492" edge="1">
                    <mxGeometry relative="1" as="geometry"/>
                </mxCell>
                <mxCell id="542" value="MEM_WEn" style="text;html=1;align=center;verticalAlign=middle;resizable=0;points=[];autosize=1;strokeColor=none;fillColor=none;fontSize=10;" parent="1" vertex="1">
                    <mxGeometry x="1399.94" y="1680" width="70" height="20" as="geometry"/>
                </mxCell>
                <mxCell id="545" value="" style="edgeStyle=none;html=1;fontSize=10;" parent="1" source="544" edge="1">
                    <mxGeometry relative="1" as="geometry">
                        <mxPoint x="1659.94" y="1650" as="targetPoint"/>
                    </mxGeometry>
                </mxCell>
                <mxCell id="544" value="WB_RFwr" style="text;html=1;align=center;verticalAlign=middle;resizable=0;points=[];autosize=1;strokeColor=none;fillColor=none;fontSize=10;" parent="1" vertex="1">
                    <mxGeometry x="1679.94" y="1690" width="60" height="20" as="geometry"/>
                </mxCell>
                <mxCell id="547" value="" style="endArrow=classic;html=1;fontSize=10;" edge="1" parent="1" target="475">
                    <mxGeometry width="50" height="50" relative="1" as="geometry">
                        <mxPoint x="1340" y="90" as="sourcePoint"/>
                        <mxPoint x="1300" y="150" as="targetPoint"/>
                    </mxGeometry>
                </mxCell>
                <mxCell id="548" value="" style="endArrow=classic;html=1;fontSize=10;" edge="1" parent="1" target="478">
                    <mxGeometry width="50" height="50" relative="1" as="geometry">
                        <mxPoint x="1759" y="90" as="sourcePoint"/>
                        <mxPoint x="1759" y="140" as="targetPoint"/>
                    </mxGeometry>
                </mxCell>
                <mxCell id="565" value="DRAMStore" style="rounded=0;whiteSpace=wrap;html=1;fontSize=18;" vertex="1" parent="1">
                    <mxGeometry x="2211.56" y="1125" width="120" height="100" as="geometry"/>
                </mxCell>
                <mxCell id="566" value="" style="endArrow=classic;html=1;fontSize=10;entryX=0.01;entryY=0.089;entryDx=0;entryDy=0;entryPerimeter=0;" edge="1" parent="1" target="565">
                    <mxGeometry width="50" height="50" relative="1" as="geometry">
                        <mxPoint x="2146.56" y="1134" as="sourcePoint"/>
                        <mxPoint x="2206.56" y="1145" as="targetPoint"/>
                    </mxGeometry>
                </mxCell>
                <mxCell id="567" value="adr" style="text;html=1;align=center;verticalAlign=middle;resizable=0;points=[];autosize=1;strokeColor=none;fillColor=none;fontSize=18;" vertex="1" parent="1">
                    <mxGeometry x="2105" y="1120" width="40" height="30" as="geometry"/>
                </mxCell>
                <mxCell id="568" value="" style="endArrow=classic;html=1;fontSize=10;entryX=0.042;entryY=0.4;entryDx=0;entryDy=0;entryPerimeter=0;" edge="1" parent="1" target="565">
                    <mxGeometry width="50" height="50" relative="1" as="geometry">
                        <mxPoint x="2156.56" y="1165" as="sourcePoint"/>
                        <mxPoint x="2206.56" y="1165" as="targetPoint"/>
                    </mxGeometry>
                </mxCell>
                <mxCell id="569" value="wdin" style="text;html=1;align=center;verticalAlign=middle;resizable=0;points=[];autosize=1;strokeColor=none;fillColor=none;fontSize=18;" vertex="1" parent="1">
                    <mxGeometry x="2100" y="1153.44" width="50" height="30" as="geometry"/>
                </mxCell>
                <mxCell id="570" value="" style="endArrow=classic;html=1;fontSize=10;entryX=0;entryY=0.75;entryDx=0;entryDy=0;" edge="1" parent="1" target="565">
                    <mxGeometry width="50" height="50" relative="1" as="geometry">
                        <mxPoint x="2156.56" y="1200" as="sourcePoint"/>
                        <mxPoint x="2196.56" y="1205" as="targetPoint"/>
                    </mxGeometry>
                </mxCell>
                <mxCell id="571" value="WEn" style="text;html=1;align=center;verticalAlign=middle;resizable=0;points=[];autosize=1;strokeColor=none;fillColor=none;fontSize=18;" vertex="1" parent="1">
                    <mxGeometry x="2101.56" y="1190" width="50" height="30" as="geometry"/>
                </mxCell>
                <mxCell id="572" value="" style="endArrow=classic;html=1;fontSize=10;" edge="1" parent="1" target="565">
                    <mxGeometry width="50" height="50" relative="1" as="geometry">
                        <mxPoint x="2376.56" y="1135" as="sourcePoint"/>
                        <mxPoint x="2426.56" y="1135" as="targetPoint"/>
                    </mxGeometry>
                </mxCell>
                <mxCell id="573" value="rd" style="text;html=1;align=center;verticalAlign=middle;resizable=0;points=[];autosize=1;strokeColor=none;fillColor=none;fontSize=18;" vertex="1" parent="1">
                    <mxGeometry x="2361.56" y="1145" width="30" height="30" as="geometry"/>
                </mxCell>
                <mxCell id="574" value="" style="endArrow=classic;html=1;fontSize=10;exitX=1;exitY=0.75;exitDx=0;exitDy=0;" edge="1" parent="1" source="565">
                    <mxGeometry width="50" height="50" relative="1" as="geometry">
                        <mxPoint x="2346.56" y="1205" as="sourcePoint"/>
                        <mxPoint x="2396.56" y="1205" as="targetPoint"/>
                    </mxGeometry>
                </mxCell>
                <mxCell id="575" value="rd_" style="text;html=1;align=center;verticalAlign=middle;resizable=0;points=[];autosize=1;strokeColor=none;fillColor=none;fontSize=18;" vertex="1" parent="1">
                    <mxGeometry x="2386.56" y="1200" width="40" height="30" as="geometry"/>
                </mxCell>
                <mxCell id="576" value="" style="endArrow=classic;html=1;fontSize=10;exitX=0.956;exitY=0.888;exitDx=0;exitDy=0;exitPerimeter=0;" edge="1" parent="1" source="275" target="577">
                    <mxGeometry width="50" height="50" relative="1" as="geometry">
                        <mxPoint x="1490" y="480" as="sourcePoint"/>
                        <mxPoint x="1720" y="500" as="targetPoint"/>
                        <Array as="points">
                            <mxPoint x="1471" y="470"/>
                            <mxPoint x="1670" y="470"/>
                        </Array>
                    </mxGeometry>
                </mxCell>
                <mxCell id="577" value="&lt;font style=&quot;font-size: 10px&quot;&gt;rR1&lt;/font&gt;" style="text;html=1;align=center;verticalAlign=middle;resizable=0;points=[];autosize=1;strokeColor=none;fillColor=none;fontSize=18;" vertex="1" parent="1">
                    <mxGeometry x="1744.94" y="502" width="30" height="30" as="geometry"/>
                </mxCell>
                <mxCell id="579" value="rR2" style="text;html=1;align=center;verticalAlign=middle;resizable=0;points=[];autosize=1;strokeColor=none;fillColor=none;fontSize=10;" vertex="1" parent="1">
                    <mxGeometry x="1740.15" y="652" width="30" height="20" as="geometry"/>
                </mxCell>
                <mxCell id="580" value="" style="endArrow=classic;html=1;fontSize=10;exitX=1.114;exitY=1.15;exitDx=0;exitDy=0;exitPerimeter=0;" edge="1" parent="1" source="278" target="579">
                    <mxGeometry width="50" height="50" relative="1" as="geometry">
                        <mxPoint x="1481" y="580" as="sourcePoint"/>
                        <mxPoint x="1754.8400000000001" y="520.0044404973357" as="targetPoint"/>
                        <Array as="points">
                            <mxPoint x="1481" y="690"/>
                            <mxPoint x="1680" y="690"/>
                        </Array>
                    </mxGeometry>
                </mxCell>
                <mxCell id="581" value="forward_loaduse" style="rounded=0;whiteSpace=wrap;html=1;fontSize=10;" vertex="1" parent="1">
                    <mxGeometry x="1821.5" y="1103" width="120" height="97" as="geometry"/>
                </mxCell>
                <mxCell id="582" value="" style="endArrow=classic;html=1;fontSize=10;entryX=0.003;entryY=0.16;entryDx=0;entryDy=0;entryPerimeter=0;" edge="1" parent="1" target="581">
                    <mxGeometry width="50" height="50" relative="1" as="geometry">
                        <mxPoint x="1760" y="1120" as="sourcePoint"/>
                        <mxPoint x="1810" y="1120" as="targetPoint"/>
                    </mxGeometry>
                </mxCell>
                <mxCell id="583" value="EX_rR1" style="text;html=1;align=center;verticalAlign=middle;resizable=0;points=[];autosize=1;strokeColor=none;fillColor=none;fontSize=10;" vertex="1" parent="1">
                    <mxGeometry x="1715" y="1100" width="50" height="20" as="geometry"/>
                </mxCell>
                <mxCell id="584" value="" style="endArrow=classic;html=1;fontSize=10;entryX=0;entryY=0.5;entryDx=0;entryDy=0;" edge="1" parent="1" target="581">
                    <mxGeometry width="50" height="50" relative="1" as="geometry">
                        <mxPoint x="1760" y="1150" as="sourcePoint"/>
                        <mxPoint x="1810" y="1150" as="targetPoint"/>
                    </mxGeometry>
                </mxCell>
                <mxCell id="585" value="EX_rR2" style="text;html=1;align=center;verticalAlign=middle;resizable=0;points=[];autosize=1;strokeColor=none;fillColor=none;fontSize=10;" vertex="1" parent="1">
                    <mxGeometry x="1715.15" y="1133.44" width="50" height="20" as="geometry"/>
                </mxCell>
                <mxCell id="586" value="" style="endArrow=classic;html=1;fontSize=10;entryX=0.003;entryY=0.638;entryDx=0;entryDy=0;entryPerimeter=0;" edge="1" parent="1" target="581">
                    <mxGeometry width="50" height="50" relative="1" as="geometry">
                        <mxPoint x="1760" y="1165" as="sourcePoint"/>
                        <mxPoint x="1760" y="1180" as="targetPoint"/>
                    </mxGeometry>
                </mxCell>
                <mxCell id="587" value="EX_A" style="text;html=1;align=center;verticalAlign=middle;resizable=0;points=[];autosize=1;strokeColor=none;fillColor=none;fontSize=10;" vertex="1" parent="1">
                    <mxGeometry x="1725.08" y="1158.44" width="40" height="20" as="geometry"/>
                </mxCell>
                <mxCell id="588" value="" style="endArrow=classic;html=1;fontSize=10;entryX=0;entryY=0.75;entryDx=0;entryDy=0;" edge="1" parent="1" target="581">
                    <mxGeometry width="50" height="50" relative="1" as="geometry">
                        <mxPoint x="1760" y="1180" as="sourcePoint"/>
                        <mxPoint x="1810" y="1180" as="targetPoint"/>
                    </mxGeometry>
                </mxCell>
                <mxCell id="590" value="EX_B" style="text;html=1;align=center;verticalAlign=middle;resizable=0;points=[];autosize=1;strokeColor=none;fillColor=none;fontSize=10;" vertex="1" parent="1">
                    <mxGeometry x="1725.08" y="1178.44" width="40" height="20" as="geometry"/>
                </mxCell>
                <mxCell id="593" value="" style="endArrow=classic;html=1;fontSize=10;entryX=0.161;entryY=1.007;entryDx=0;entryDy=0;entryPerimeter=0;" edge="1" parent="1" target="581">
                    <mxGeometry width="50" height="50" relative="1" as="geometry">
                        <mxPoint x="1841" y="1240" as="sourcePoint"/>
                        <mxPoint x="1880" y="1210" as="targetPoint"/>
                    </mxGeometry>
                </mxCell>
                <mxCell id="594" value="MEM_wR" style="text;html=1;align=center;verticalAlign=middle;resizable=0;points=[];autosize=1;strokeColor=none;fillColor=none;fontSize=10;" vertex="1" parent="1">
                    <mxGeometry x="1800" y="1240" width="60" height="20" as="geometry"/>
                </mxCell>
                <mxCell id="595" value="" style="endArrow=classic;html=1;fontSize=10;entryX=0.573;entryY=0.985;entryDx=0;entryDy=0;entryPerimeter=0;" edge="1" parent="1" target="581">
                    <mxGeometry width="50" height="50" relative="1" as="geometry">
                        <mxPoint x="1890" y="1240" as="sourcePoint"/>
                        <mxPoint x="1890" y="1280" as="targetPoint"/>
                    </mxGeometry>
                </mxCell>
                <mxCell id="596" value="MEM_rd_" style="text;html=1;align=center;verticalAlign=middle;resizable=0;points=[];autosize=1;strokeColor=none;fillColor=none;fontSize=10;" vertex="1" parent="1">
                    <mxGeometry x="1862.5" y="1240" width="60" height="20" as="geometry"/>
                </mxCell>
                <mxCell id="597" value="" style="endArrow=classic;html=1;fontSize=10;exitX=1.012;exitY=0.138;exitDx=0;exitDy=0;exitPerimeter=0;" edge="1" parent="1" source="581">
                    <mxGeometry width="50" height="50" relative="1" as="geometry">
                        <mxPoint x="1960" y="1120" as="sourcePoint"/>
                        <mxPoint x="1990" y="1120" as="targetPoint"/>
                    </mxGeometry>
                </mxCell>
                <mxCell id="598" value="A_" style="text;html=1;align=center;verticalAlign=middle;resizable=0;points=[];autosize=1;strokeColor=none;fillColor=none;fontSize=10;" vertex="1" parent="1">
                    <mxGeometry x="1995" y="1110" width="30" height="20" as="geometry"/>
                </mxCell>
                <mxCell id="599" value="" style="endArrow=classic;html=1;fontSize=10;exitX=1;exitY=0.75;exitDx=0;exitDy=0;" edge="1" parent="1" source="581">
                    <mxGeometry width="50" height="50" relative="1" as="geometry">
                        <mxPoint x="1960" y="1180" as="sourcePoint"/>
                        <mxPoint x="1990" y="1170" as="targetPoint"/>
                    </mxGeometry>
                </mxCell>
                <mxCell id="600" value="B_" style="text;html=1;align=center;verticalAlign=middle;resizable=0;points=[];autosize=1;strokeColor=none;fillColor=none;fontSize=10;" vertex="1" parent="1">
                    <mxGeometry x="1995" y="1170" width="30" height="20" as="geometry"/>
                </mxCell>
                <mxCell id="601" value="" style="endArrow=classic;html=1;fontSize=10;" edge="1" parent="1" target="602">
                    <mxGeometry width="50" height="50" relative="1" as="geometry">
                        <mxPoint x="1650" y="580" as="sourcePoint"/>
                        <mxPoint x="1720" y="620" as="targetPoint"/>
                        <Array as="points">
                            <mxPoint x="1690" y="580"/>
                            <mxPoint x="1690" y="628"/>
                        </Array>
                    </mxGeometry>
                </mxCell>
                <mxCell id="602" value="BSel" style="text;html=1;align=center;verticalAlign=middle;resizable=0;points=[];autosize=1;strokeColor=none;fillColor=none;fontSize=10;" vertex="1" parent="1">
                    <mxGeometry x="1735.15" y="617.5" width="40" height="20" as="geometry"/>
                </mxCell>
                <mxCell id="603" value="" style="endArrow=classic;html=1;fontSize=10;" edge="1" parent="1" target="604">
                    <mxGeometry width="50" height="50" relative="1" as="geometry">
                        <mxPoint x="1660" y="420" as="sourcePoint"/>
                        <mxPoint x="1700" y="490" as="targetPoint"/>
                        <Array as="points">
                            <mxPoint x="1660" y="490"/>
                        </Array>
                    </mxGeometry>
                </mxCell>
                <mxCell id="604" value="ASel" style="text;html=1;align=center;verticalAlign=middle;resizable=0;points=[];autosize=1;strokeColor=none;fillColor=none;fontSize=10;" vertex="1" parent="1">
                    <mxGeometry x="1739.94" y="480" width="40" height="20" as="geometry"/>
                </mxCell>
            </root>
        </mxGraphModel>
    </diagram>
</mxfile>